<mxfile host="65bd71144e">
    <diagram id="R2lEEEUBdFMjLlhIrx00" name="Page-1">
        <mxGraphModel dx="1431" dy="1676" grid="1" gridSize="10" guides="1" tooltips="1" connect="1" arrows="1" fold="1" page="1" pageScale="1" pageWidth="850" pageHeight="1100" math="0" shadow="0" extFonts="Permanent Marker^https://fonts.googleapis.com/css?family=Permanent+Marker">
            <root>
                <mxCell id="0"/>
                <mxCell id="1" parent="0"/>
                <mxCell id="KscysSoOjyOIIRiCbh5m-1" value="users" style="shape=table;startSize=20;container=1;collapsible=1;childLayout=tableLayout;fixedRows=1;rowLines=0;fontStyle=1;align=center;resizeLast=1;rounded=0;" parent="1" vertex="1">
                    <mxGeometry x="-180" y="380" width="200" height="180" as="geometry"/>
                </mxCell>
                <mxCell id="KscysSoOjyOIIRiCbh5m-2" value="" style="shape=tableRow;horizontal=0;startSize=0;swimlaneHead=0;swimlaneBody=0;fillColor=none;collapsible=0;dropTarget=0;points=[[0,0.5],[1,0.5]];portConstraint=eastwest;top=0;left=0;right=0;bottom=1;rounded=0;" parent="KscysSoOjyOIIRiCbh5m-1" vertex="1">
                    <mxGeometry y="20" width="200" height="20" as="geometry"/>
                </mxCell>
                <mxCell id="KscysSoOjyOIIRiCbh5m-3" value="PK" style="shape=partialRectangle;connectable=0;fillColor=none;top=0;left=0;bottom=0;right=0;fontStyle=1;overflow=hidden;rounded=0;" parent="KscysSoOjyOIIRiCbh5m-2" vertex="1">
                    <mxGeometry width="30" height="20" as="geometry">
                        <mxRectangle width="30" height="20" as="alternateBounds"/>
                    </mxGeometry>
                </mxCell>
                <mxCell id="KscysSoOjyOIIRiCbh5m-4" value="ID" style="shape=partialRectangle;connectable=0;fillColor=none;top=0;left=0;bottom=0;right=0;align=left;spacingLeft=6;fontStyle=5;overflow=hidden;rounded=0;" parent="KscysSoOjyOIIRiCbh5m-2" vertex="1">
                    <mxGeometry x="30" width="170" height="20" as="geometry">
                        <mxRectangle width="170" height="20" as="alternateBounds"/>
                    </mxGeometry>
                </mxCell>
                <mxCell id="KscysSoOjyOIIRiCbh5m-5" value="" style="shape=tableRow;horizontal=0;startSize=0;swimlaneHead=0;swimlaneBody=0;fillColor=none;collapsible=0;dropTarget=0;points=[[0,0.5],[1,0.5]];portConstraint=eastwest;top=0;left=0;right=0;bottom=0;rounded=0;" parent="KscysSoOjyOIIRiCbh5m-1" vertex="1">
                    <mxGeometry y="40" width="200" height="20" as="geometry"/>
                </mxCell>
                <mxCell id="KscysSoOjyOIIRiCbh5m-6" value="" style="shape=partialRectangle;connectable=0;fillColor=none;top=0;left=0;bottom=0;right=0;editable=1;overflow=hidden;rounded=0;" parent="KscysSoOjyOIIRiCbh5m-5" vertex="1">
                    <mxGeometry width="30" height="20" as="geometry">
                        <mxRectangle width="30" height="20" as="alternateBounds"/>
                    </mxGeometry>
                </mxCell>
                <mxCell id="KscysSoOjyOIIRiCbh5m-7" value="name（string）" style="shape=partialRectangle;connectable=0;fillColor=none;top=0;left=0;bottom=0;right=0;align=left;spacingLeft=6;overflow=hidden;rounded=0;" parent="KscysSoOjyOIIRiCbh5m-5" vertex="1">
                    <mxGeometry x="30" width="170" height="20" as="geometry">
                        <mxRectangle width="170" height="20" as="alternateBounds"/>
                    </mxGeometry>
                </mxCell>
                <mxCell id="KscysSoOjyOIIRiCbh5m-8" value="" style="shape=tableRow;horizontal=0;startSize=0;swimlaneHead=0;swimlaneBody=0;fillColor=none;collapsible=0;dropTarget=0;points=[[0,0.5],[1,0.5]];portConstraint=eastwest;top=0;left=0;right=0;bottom=0;rounded=0;" parent="KscysSoOjyOIIRiCbh5m-1" vertex="1">
                    <mxGeometry y="60" width="200" height="20" as="geometry"/>
                </mxCell>
                <mxCell id="KscysSoOjyOIIRiCbh5m-9" value="" style="shape=partialRectangle;connectable=0;fillColor=none;top=0;left=0;bottom=0;right=0;editable=1;overflow=hidden;rounded=0;" parent="KscysSoOjyOIIRiCbh5m-8" vertex="1">
                    <mxGeometry width="30" height="20" as="geometry">
                        <mxRectangle width="30" height="20" as="alternateBounds"/>
                    </mxGeometry>
                </mxCell>
                <mxCell id="KscysSoOjyOIIRiCbh5m-10" value="email（string）" style="shape=partialRectangle;connectable=0;fillColor=none;top=0;left=0;bottom=0;right=0;align=left;spacingLeft=6;overflow=hidden;rounded=0;" parent="KscysSoOjyOIIRiCbh5m-8" vertex="1">
                    <mxGeometry x="30" width="170" height="20" as="geometry">
                        <mxRectangle width="170" height="20" as="alternateBounds"/>
                    </mxGeometry>
                </mxCell>
                <mxCell id="KscysSoOjyOIIRiCbh5m-11" value="" style="shape=tableRow;horizontal=0;startSize=0;swimlaneHead=0;swimlaneBody=0;fillColor=none;collapsible=0;dropTarget=0;points=[[0,0.5],[1,0.5]];portConstraint=eastwest;top=0;left=0;right=0;bottom=0;rounded=0;" parent="KscysSoOjyOIIRiCbh5m-1" vertex="1">
                    <mxGeometry y="80" width="200" height="20" as="geometry"/>
                </mxCell>
                <mxCell id="KscysSoOjyOIIRiCbh5m-12" value="" style="shape=partialRectangle;connectable=0;fillColor=none;top=0;left=0;bottom=0;right=0;editable=1;overflow=hidden;rounded=0;" parent="KscysSoOjyOIIRiCbh5m-11" vertex="1">
                    <mxGeometry width="30" height="20" as="geometry">
                        <mxRectangle width="30" height="20" as="alternateBounds"/>
                    </mxGeometry>
                </mxCell>
                <mxCell id="KscysSoOjyOIIRiCbh5m-13" value="crypted_password（string）" style="shape=partialRectangle;connectable=0;fillColor=none;top=0;left=0;bottom=0;right=0;align=left;spacingLeft=6;overflow=hidden;rounded=0;" parent="KscysSoOjyOIIRiCbh5m-11" vertex="1">
                    <mxGeometry x="30" width="170" height="20" as="geometry">
                        <mxRectangle width="170" height="20" as="alternateBounds"/>
                    </mxGeometry>
                </mxCell>
                <mxCell id="KscysSoOjyOIIRiCbh5m-14" value="" style="shape=tableRow;horizontal=0;startSize=0;swimlaneHead=0;swimlaneBody=0;fillColor=none;collapsible=0;dropTarget=0;points=[[0,0.5],[1,0.5]];portConstraint=eastwest;top=0;left=0;right=0;bottom=0;rounded=0;" parent="KscysSoOjyOIIRiCbh5m-1" vertex="1">
                    <mxGeometry y="100" width="200" height="20" as="geometry"/>
                </mxCell>
                <mxCell id="KscysSoOjyOIIRiCbh5m-15" value="" style="shape=partialRectangle;connectable=0;fillColor=none;top=0;left=0;bottom=0;right=0;editable=1;overflow=hidden;rounded=0;" parent="KscysSoOjyOIIRiCbh5m-14" vertex="1">
                    <mxGeometry width="30" height="20" as="geometry">
                        <mxRectangle width="30" height="20" as="alternateBounds"/>
                    </mxGeometry>
                </mxCell>
                <mxCell id="KscysSoOjyOIIRiCbh5m-16" value="avatar_url（string）" style="shape=partialRectangle;connectable=0;fillColor=none;top=0;left=0;bottom=0;right=0;align=left;spacingLeft=6;overflow=hidden;rounded=0;" parent="KscysSoOjyOIIRiCbh5m-14" vertex="1">
                    <mxGeometry x="30" width="170" height="20" as="geometry">
                        <mxRectangle width="170" height="20" as="alternateBounds"/>
                    </mxGeometry>
                </mxCell>
                <mxCell id="KscysSoOjyOIIRiCbh5m-17" value="" style="shape=tableRow;horizontal=0;startSize=0;swimlaneHead=0;swimlaneBody=0;fillColor=none;collapsible=0;dropTarget=0;points=[[0,0.5],[1,0.5]];portConstraint=eastwest;top=0;left=0;right=0;bottom=0;rounded=0;" parent="KscysSoOjyOIIRiCbh5m-1" vertex="1">
                    <mxGeometry y="120" width="200" height="20" as="geometry"/>
                </mxCell>
                <mxCell id="KscysSoOjyOIIRiCbh5m-18" value="" style="shape=partialRectangle;connectable=0;fillColor=none;top=0;left=0;bottom=0;right=0;editable=1;overflow=hidden;rounded=0;" parent="KscysSoOjyOIIRiCbh5m-17" vertex="1">
                    <mxGeometry width="30" height="20" as="geometry">
                        <mxRectangle width="30" height="20" as="alternateBounds"/>
                    </mxGeometry>
                </mxCell>
                <mxCell id="KscysSoOjyOIIRiCbh5m-19" value="self_introduction（text）" style="shape=partialRectangle;connectable=0;fillColor=none;top=0;left=0;bottom=0;right=0;align=left;spacingLeft=6;overflow=hidden;rounded=0;" parent="KscysSoOjyOIIRiCbh5m-17" vertex="1">
                    <mxGeometry x="30" width="170" height="20" as="geometry">
                        <mxRectangle width="170" height="20" as="alternateBounds"/>
                    </mxGeometry>
                </mxCell>
                <mxCell id="KscysSoOjyOIIRiCbh5m-20" value="" style="shape=tableRow;horizontal=0;startSize=0;swimlaneHead=0;swimlaneBody=0;fillColor=none;collapsible=0;dropTarget=0;points=[[0,0.5],[1,0.5]];portConstraint=eastwest;top=0;left=0;right=0;bottom=0;rounded=0;" parent="KscysSoOjyOIIRiCbh5m-1" vertex="1">
                    <mxGeometry y="140" width="200" height="20" as="geometry"/>
                </mxCell>
                <mxCell id="KscysSoOjyOIIRiCbh5m-21" value="" style="shape=partialRectangle;connectable=0;fillColor=none;top=0;left=0;bottom=0;right=0;editable=1;overflow=hidden;rounded=0;" parent="KscysSoOjyOIIRiCbh5m-20" vertex="1">
                    <mxGeometry width="30" height="20" as="geometry">
                        <mxRectangle width="30" height="20" as="alternateBounds"/>
                    </mxGeometry>
                </mxCell>
                <mxCell id="KscysSoOjyOIIRiCbh5m-22" value="created_at（datetime）" style="shape=partialRectangle;connectable=0;fillColor=none;top=0;left=0;bottom=0;right=0;align=left;spacingLeft=6;overflow=hidden;rounded=0;" parent="KscysSoOjyOIIRiCbh5m-20" vertex="1">
                    <mxGeometry x="30" width="170" height="20" as="geometry">
                        <mxRectangle width="170" height="20" as="alternateBounds"/>
                    </mxGeometry>
                </mxCell>
                <mxCell id="KscysSoOjyOIIRiCbh5m-23" value="" style="shape=tableRow;horizontal=0;startSize=0;swimlaneHead=0;swimlaneBody=0;fillColor=none;collapsible=0;dropTarget=0;points=[[0,0.5],[1,0.5]];portConstraint=eastwest;top=0;left=0;right=0;bottom=0;rounded=0;" parent="KscysSoOjyOIIRiCbh5m-1" vertex="1">
                    <mxGeometry y="160" width="200" height="20" as="geometry"/>
                </mxCell>
                <mxCell id="KscysSoOjyOIIRiCbh5m-24" value="" style="shape=partialRectangle;connectable=0;fillColor=none;top=0;left=0;bottom=0;right=0;editable=1;overflow=hidden;rounded=0;" parent="KscysSoOjyOIIRiCbh5m-23" vertex="1">
                    <mxGeometry width="30" height="20" as="geometry">
                        <mxRectangle width="30" height="20" as="alternateBounds"/>
                    </mxGeometry>
                </mxCell>
                <mxCell id="KscysSoOjyOIIRiCbh5m-25" value="updated_at（datetime）" style="shape=partialRectangle;connectable=0;fillColor=none;top=0;left=0;bottom=0;right=0;align=left;spacingLeft=6;overflow=hidden;rounded=0;" parent="KscysSoOjyOIIRiCbh5m-23" vertex="1">
                    <mxGeometry x="30" width="170" height="20" as="geometry">
                        <mxRectangle width="170" height="20" as="alternateBounds"/>
                    </mxGeometry>
                </mxCell>
                <mxCell id="KscysSoOjyOIIRiCbh5m-26" value="likes" style="shape=table;startSize=20;container=1;collapsible=1;childLayout=tableLayout;fixedRows=1;rowLines=0;fontStyle=1;align=center;resizeLast=1;rounded=0;" parent="1" vertex="1">
                    <mxGeometry x="-540" y="320" width="180" height="120" as="geometry"/>
                </mxCell>
                <mxCell id="KscysSoOjyOIIRiCbh5m-27" value="" style="shape=tableRow;horizontal=0;startSize=0;swimlaneHead=0;swimlaneBody=0;fillColor=none;collapsible=0;dropTarget=0;points=[[0,0.5],[1,0.5]];portConstraint=eastwest;top=0;left=0;right=0;bottom=1;rounded=0;" parent="KscysSoOjyOIIRiCbh5m-26" vertex="1">
                    <mxGeometry y="20" width="180" height="20" as="geometry"/>
                </mxCell>
                <mxCell id="KscysSoOjyOIIRiCbh5m-28" value="PK" style="shape=partialRectangle;connectable=0;fillColor=none;top=0;left=0;bottom=0;right=0;fontStyle=1;overflow=hidden;rounded=0;" parent="KscysSoOjyOIIRiCbh5m-27" vertex="1">
                    <mxGeometry width="30" height="20" as="geometry">
                        <mxRectangle width="30" height="20" as="alternateBounds"/>
                    </mxGeometry>
                </mxCell>
                <mxCell id="KscysSoOjyOIIRiCbh5m-29" value="ID" style="shape=partialRectangle;connectable=0;fillColor=none;top=0;left=0;bottom=0;right=0;align=left;spacingLeft=6;fontStyle=5;overflow=hidden;rounded=0;" parent="KscysSoOjyOIIRiCbh5m-27" vertex="1">
                    <mxGeometry x="30" width="150" height="20" as="geometry">
                        <mxRectangle width="150" height="20" as="alternateBounds"/>
                    </mxGeometry>
                </mxCell>
                <mxCell id="KscysSoOjyOIIRiCbh5m-30" value="" style="shape=tableRow;horizontal=0;startSize=0;swimlaneHead=0;swimlaneBody=0;fillColor=none;collapsible=0;dropTarget=0;points=[[0,0.5],[1,0.5]];portConstraint=eastwest;top=0;left=0;right=0;bottom=0;rounded=0;" parent="KscysSoOjyOIIRiCbh5m-26" vertex="1">
                    <mxGeometry y="40" width="180" height="20" as="geometry"/>
                </mxCell>
                <mxCell id="KscysSoOjyOIIRiCbh5m-31" value="FK" style="shape=partialRectangle;connectable=0;fillColor=none;top=0;left=0;bottom=0;right=0;editable=1;overflow=hidden;rounded=0;" parent="KscysSoOjyOIIRiCbh5m-30" vertex="1">
                    <mxGeometry width="30" height="20" as="geometry">
                        <mxRectangle width="30" height="20" as="alternateBounds"/>
                    </mxGeometry>
                </mxCell>
                <mxCell id="KscysSoOjyOIIRiCbh5m-32" value="user_id（integer）" style="shape=partialRectangle;connectable=0;fillColor=none;top=0;left=0;bottom=0;right=0;align=left;spacingLeft=6;overflow=hidden;rounded=0;" parent="KscysSoOjyOIIRiCbh5m-30" vertex="1">
                    <mxGeometry x="30" width="150" height="20" as="geometry">
                        <mxRectangle width="150" height="20" as="alternateBounds"/>
                    </mxGeometry>
                </mxCell>
                <mxCell id="KscysSoOjyOIIRiCbh5m-33" value="" style="shape=tableRow;horizontal=0;startSize=0;swimlaneHead=0;swimlaneBody=0;fillColor=none;collapsible=0;dropTarget=0;points=[[0,0.5],[1,0.5]];portConstraint=eastwest;top=0;left=0;right=0;bottom=0;rounded=0;" parent="KscysSoOjyOIIRiCbh5m-26" vertex="1">
                    <mxGeometry y="60" width="180" height="20" as="geometry"/>
                </mxCell>
                <mxCell id="KscysSoOjyOIIRiCbh5m-34" value="FK" style="shape=partialRectangle;connectable=0;fillColor=none;top=0;left=0;bottom=0;right=0;editable=1;overflow=hidden;rounded=0;" parent="KscysSoOjyOIIRiCbh5m-33" vertex="1">
                    <mxGeometry width="30" height="20" as="geometry">
                        <mxRectangle width="30" height="20" as="alternateBounds"/>
                    </mxGeometry>
                </mxCell>
                <mxCell id="KscysSoOjyOIIRiCbh5m-35" value="photo_id（integer）" style="shape=partialRectangle;connectable=0;fillColor=none;top=0;left=0;bottom=0;right=0;align=left;spacingLeft=6;overflow=hidden;rounded=0;" parent="KscysSoOjyOIIRiCbh5m-33" vertex="1">
                    <mxGeometry x="30" width="150" height="20" as="geometry">
                        <mxRectangle width="150" height="20" as="alternateBounds"/>
                    </mxGeometry>
                </mxCell>
                <mxCell id="KscysSoOjyOIIRiCbh5m-36" value="" style="shape=tableRow;horizontal=0;startSize=0;swimlaneHead=0;swimlaneBody=0;fillColor=none;collapsible=0;dropTarget=0;points=[[0,0.5],[1,0.5]];portConstraint=eastwest;top=0;left=0;right=0;bottom=0;rounded=0;" parent="KscysSoOjyOIIRiCbh5m-26" vertex="1">
                    <mxGeometry y="80" width="180" height="20" as="geometry"/>
                </mxCell>
                <mxCell id="KscysSoOjyOIIRiCbh5m-37" value="" style="shape=partialRectangle;connectable=0;fillColor=none;top=0;left=0;bottom=0;right=0;editable=1;overflow=hidden;rounded=0;" parent="KscysSoOjyOIIRiCbh5m-36" vertex="1">
                    <mxGeometry width="30" height="20" as="geometry">
                        <mxRectangle width="30" height="20" as="alternateBounds"/>
                    </mxGeometry>
                </mxCell>
                <mxCell id="KscysSoOjyOIIRiCbh5m-38" value="created_at（datetime）" style="shape=partialRectangle;connectable=0;fillColor=none;top=0;left=0;bottom=0;right=0;align=left;spacingLeft=6;overflow=hidden;rounded=0;" parent="KscysSoOjyOIIRiCbh5m-36" vertex="1">
                    <mxGeometry x="30" width="150" height="20" as="geometry">
                        <mxRectangle width="150" height="20" as="alternateBounds"/>
                    </mxGeometry>
                </mxCell>
                <mxCell id="KscysSoOjyOIIRiCbh5m-39" value="" style="shape=tableRow;horizontal=0;startSize=0;swimlaneHead=0;swimlaneBody=0;fillColor=none;collapsible=0;dropTarget=0;points=[[0,0.5],[1,0.5]];portConstraint=eastwest;top=0;left=0;right=0;bottom=0;rounded=0;" parent="KscysSoOjyOIIRiCbh5m-26" vertex="1">
                    <mxGeometry y="100" width="180" height="20" as="geometry"/>
                </mxCell>
                <mxCell id="KscysSoOjyOIIRiCbh5m-40" value="" style="shape=partialRectangle;connectable=0;fillColor=none;top=0;left=0;bottom=0;right=0;editable=1;overflow=hidden;rounded=0;" parent="KscysSoOjyOIIRiCbh5m-39" vertex="1">
                    <mxGeometry width="30" height="20" as="geometry">
                        <mxRectangle width="30" height="20" as="alternateBounds"/>
                    </mxGeometry>
                </mxCell>
                <mxCell id="KscysSoOjyOIIRiCbh5m-41" value="updated_at（datetime）" style="shape=partialRectangle;connectable=0;fillColor=none;top=0;left=0;bottom=0;right=0;align=left;spacingLeft=6;overflow=hidden;rounded=0;" parent="KscysSoOjyOIIRiCbh5m-39" vertex="1">
                    <mxGeometry x="30" width="150" height="20" as="geometry">
                        <mxRectangle width="150" height="20" as="alternateBounds"/>
                    </mxGeometry>
                </mxCell>
                <mxCell id="KscysSoOjyOIIRiCbh5m-42" value="categories" style="shape=table;startSize=20;container=1;collapsible=1;childLayout=tableLayout;fixedRows=1;rowLines=0;fontStyle=1;align=center;resizeLast=1;rounded=0;" parent="1" vertex="1">
                    <mxGeometry x="520" y="710" width="180" height="100" as="geometry"/>
                </mxCell>
                <mxCell id="KscysSoOjyOIIRiCbh5m-43" value="" style="shape=tableRow;horizontal=0;startSize=0;swimlaneHead=0;swimlaneBody=0;fillColor=none;collapsible=0;dropTarget=0;points=[[0,0.5],[1,0.5]];portConstraint=eastwest;top=0;left=0;right=0;bottom=1;rounded=0;" parent="KscysSoOjyOIIRiCbh5m-42" vertex="1">
                    <mxGeometry y="20" width="180" height="20" as="geometry"/>
                </mxCell>
                <mxCell id="KscysSoOjyOIIRiCbh5m-44" value="PK" style="shape=partialRectangle;connectable=0;fillColor=none;top=0;left=0;bottom=0;right=0;fontStyle=1;overflow=hidden;rounded=0;" parent="KscysSoOjyOIIRiCbh5m-43" vertex="1">
                    <mxGeometry width="30" height="20" as="geometry">
                        <mxRectangle width="30" height="20" as="alternateBounds"/>
                    </mxGeometry>
                </mxCell>
                <mxCell id="KscysSoOjyOIIRiCbh5m-45" value="ID" style="shape=partialRectangle;connectable=0;fillColor=none;top=0;left=0;bottom=0;right=0;align=left;spacingLeft=6;fontStyle=5;overflow=hidden;rounded=0;" parent="KscysSoOjyOIIRiCbh5m-43" vertex="1">
                    <mxGeometry x="30" width="150" height="20" as="geometry">
                        <mxRectangle width="150" height="20" as="alternateBounds"/>
                    </mxGeometry>
                </mxCell>
                <mxCell id="KscysSoOjyOIIRiCbh5m-46" value="" style="shape=tableRow;horizontal=0;startSize=0;swimlaneHead=0;swimlaneBody=0;fillColor=none;collapsible=0;dropTarget=0;points=[[0,0.5],[1,0.5]];portConstraint=eastwest;top=0;left=0;right=0;bottom=0;rounded=0;" parent="KscysSoOjyOIIRiCbh5m-42" vertex="1">
                    <mxGeometry y="40" width="180" height="20" as="geometry"/>
                </mxCell>
                <mxCell id="KscysSoOjyOIIRiCbh5m-47" value="" style="shape=partialRectangle;connectable=0;fillColor=none;top=0;left=0;bottom=0;right=0;editable=1;overflow=hidden;rounded=0;" parent="KscysSoOjyOIIRiCbh5m-46" vertex="1">
                    <mxGeometry width="30" height="20" as="geometry">
                        <mxRectangle width="30" height="20" as="alternateBounds"/>
                    </mxGeometry>
                </mxCell>
                <mxCell id="KscysSoOjyOIIRiCbh5m-48" value="name（string）" style="shape=partialRectangle;connectable=0;fillColor=none;top=0;left=0;bottom=0;right=0;align=left;spacingLeft=6;overflow=hidden;rounded=0;" parent="KscysSoOjyOIIRiCbh5m-46" vertex="1">
                    <mxGeometry x="30" width="150" height="20" as="geometry">
                        <mxRectangle width="150" height="20" as="alternateBounds"/>
                    </mxGeometry>
                </mxCell>
                <mxCell id="KscysSoOjyOIIRiCbh5m-49" value="" style="shape=tableRow;horizontal=0;startSize=0;swimlaneHead=0;swimlaneBody=0;fillColor=none;collapsible=0;dropTarget=0;points=[[0,0.5],[1,0.5]];portConstraint=eastwest;top=0;left=0;right=0;bottom=0;rounded=0;" parent="KscysSoOjyOIIRiCbh5m-42" vertex="1">
                    <mxGeometry y="60" width="180" height="20" as="geometry"/>
                </mxCell>
                <mxCell id="KscysSoOjyOIIRiCbh5m-50" value="" style="shape=partialRectangle;connectable=0;fillColor=none;top=0;left=0;bottom=0;right=0;editable=1;overflow=hidden;rounded=0;" parent="KscysSoOjyOIIRiCbh5m-49" vertex="1">
                    <mxGeometry width="30" height="20" as="geometry">
                        <mxRectangle width="30" height="20" as="alternateBounds"/>
                    </mxGeometry>
                </mxCell>
                <mxCell id="KscysSoOjyOIIRiCbh5m-51" value="created_at（datetime）" style="shape=partialRectangle;connectable=0;fillColor=none;top=0;left=0;bottom=0;right=0;align=left;spacingLeft=6;overflow=hidden;rounded=0;" parent="KscysSoOjyOIIRiCbh5m-49" vertex="1">
                    <mxGeometry x="30" width="150" height="20" as="geometry">
                        <mxRectangle width="150" height="20" as="alternateBounds"/>
                    </mxGeometry>
                </mxCell>
                <mxCell id="KscysSoOjyOIIRiCbh5m-52" value="" style="shape=tableRow;horizontal=0;startSize=0;swimlaneHead=0;swimlaneBody=0;fillColor=none;collapsible=0;dropTarget=0;points=[[0,0.5],[1,0.5]];portConstraint=eastwest;top=0;left=0;right=0;bottom=0;rounded=0;" parent="KscysSoOjyOIIRiCbh5m-42" vertex="1">
                    <mxGeometry y="80" width="180" height="20" as="geometry"/>
                </mxCell>
                <mxCell id="KscysSoOjyOIIRiCbh5m-53" value="" style="shape=partialRectangle;connectable=0;fillColor=none;top=0;left=0;bottom=0;right=0;editable=1;overflow=hidden;rounded=0;" parent="KscysSoOjyOIIRiCbh5m-52" vertex="1">
                    <mxGeometry width="30" height="20" as="geometry">
                        <mxRectangle width="30" height="20" as="alternateBounds"/>
                    </mxGeometry>
                </mxCell>
                <mxCell id="KscysSoOjyOIIRiCbh5m-54" value="updated_at（datetime）" style="shape=partialRectangle;connectable=0;fillColor=none;top=0;left=0;bottom=0;right=0;align=left;spacingLeft=6;overflow=hidden;rounded=0;" parent="KscysSoOjyOIIRiCbh5m-52" vertex="1">
                    <mxGeometry x="30" width="150" height="20" as="geometry">
                        <mxRectangle width="150" height="20" as="alternateBounds"/>
                    </mxGeometry>
                </mxCell>
                <mxCell id="KscysSoOjyOIIRiCbh5m-55" value="comments" style="shape=table;startSize=20;container=1;collapsible=1;childLayout=tableLayout;fixedRows=1;rowLines=0;fontStyle=1;align=center;resizeLast=1;rounded=0;" parent="1" vertex="1">
                    <mxGeometry y="40" width="180" height="140" as="geometry"/>
                </mxCell>
                <mxCell id="KscysSoOjyOIIRiCbh5m-56" value="" style="shape=tableRow;horizontal=0;startSize=0;swimlaneHead=0;swimlaneBody=0;fillColor=none;collapsible=0;dropTarget=0;points=[[0,0.5],[1,0.5]];portConstraint=eastwest;top=0;left=0;right=0;bottom=1;rounded=0;" parent="KscysSoOjyOIIRiCbh5m-55" vertex="1">
                    <mxGeometry y="20" width="180" height="20" as="geometry"/>
                </mxCell>
                <mxCell id="KscysSoOjyOIIRiCbh5m-57" value="PK" style="shape=partialRectangle;connectable=0;fillColor=none;top=0;left=0;bottom=0;right=0;fontStyle=1;overflow=hidden;rounded=0;" parent="KscysSoOjyOIIRiCbh5m-56" vertex="1">
                    <mxGeometry width="30" height="20" as="geometry">
                        <mxRectangle width="30" height="20" as="alternateBounds"/>
                    </mxGeometry>
                </mxCell>
                <mxCell id="KscysSoOjyOIIRiCbh5m-58" value="ID" style="shape=partialRectangle;connectable=0;fillColor=none;top=0;left=0;bottom=0;right=0;align=left;spacingLeft=6;fontStyle=5;overflow=hidden;rounded=0;" parent="KscysSoOjyOIIRiCbh5m-56" vertex="1">
                    <mxGeometry x="30" width="150" height="20" as="geometry">
                        <mxRectangle width="150" height="20" as="alternateBounds"/>
                    </mxGeometry>
                </mxCell>
                <mxCell id="KscysSoOjyOIIRiCbh5m-59" value="" style="shape=tableRow;horizontal=0;startSize=0;swimlaneHead=0;swimlaneBody=0;fillColor=none;collapsible=0;dropTarget=0;points=[[0,0.5],[1,0.5]];portConstraint=eastwest;top=0;left=0;right=0;bottom=0;rounded=0;" parent="KscysSoOjyOIIRiCbh5m-55" vertex="1">
                    <mxGeometry y="40" width="180" height="20" as="geometry"/>
                </mxCell>
                <mxCell id="KscysSoOjyOIIRiCbh5m-60" value="" style="shape=partialRectangle;connectable=0;fillColor=none;top=0;left=0;bottom=0;right=0;editable=1;overflow=hidden;rounded=0;" parent="KscysSoOjyOIIRiCbh5m-59" vertex="1">
                    <mxGeometry width="30" height="20" as="geometry">
                        <mxRectangle width="30" height="20" as="alternateBounds"/>
                    </mxGeometry>
                </mxCell>
                <mxCell id="KscysSoOjyOIIRiCbh5m-61" value="body（text）" style="shape=partialRectangle;connectable=0;fillColor=none;top=0;left=0;bottom=0;right=0;align=left;spacingLeft=6;overflow=hidden;rounded=0;" parent="KscysSoOjyOIIRiCbh5m-59" vertex="1">
                    <mxGeometry x="30" width="150" height="20" as="geometry">
                        <mxRectangle width="150" height="20" as="alternateBounds"/>
                    </mxGeometry>
                </mxCell>
                <mxCell id="KscysSoOjyOIIRiCbh5m-65" value="" style="shape=tableRow;horizontal=0;startSize=0;swimlaneHead=0;swimlaneBody=0;fillColor=none;collapsible=0;dropTarget=0;points=[[0,0.5],[1,0.5]];portConstraint=eastwest;top=0;left=0;right=0;bottom=0;rounded=0;" parent="KscysSoOjyOIIRiCbh5m-55" vertex="1">
                    <mxGeometry y="60" width="180" height="20" as="geometry"/>
                </mxCell>
                <mxCell id="KscysSoOjyOIIRiCbh5m-66" value="FK" style="shape=partialRectangle;connectable=0;fillColor=none;top=0;left=0;bottom=0;right=0;editable=1;overflow=hidden;rounded=0;" parent="KscysSoOjyOIIRiCbh5m-65" vertex="1">
                    <mxGeometry width="30" height="20" as="geometry">
                        <mxRectangle width="30" height="20" as="alternateBounds"/>
                    </mxGeometry>
                </mxCell>
                <mxCell id="KscysSoOjyOIIRiCbh5m-67" value="photo_id（integer）" style="shape=partialRectangle;connectable=0;fillColor=none;top=0;left=0;bottom=0;right=0;align=left;spacingLeft=6;overflow=hidden;rounded=0;" parent="KscysSoOjyOIIRiCbh5m-65" vertex="1">
                    <mxGeometry x="30" width="150" height="20" as="geometry">
                        <mxRectangle width="150" height="20" as="alternateBounds"/>
                    </mxGeometry>
                </mxCell>
                <mxCell id="KscysSoOjyOIIRiCbh5m-62" value="" style="shape=tableRow;horizontal=0;startSize=0;swimlaneHead=0;swimlaneBody=0;fillColor=none;collapsible=0;dropTarget=0;points=[[0,0.5],[1,0.5]];portConstraint=eastwest;top=0;left=0;right=0;bottom=0;rounded=0;" parent="KscysSoOjyOIIRiCbh5m-55" vertex="1">
                    <mxGeometry y="80" width="180" height="20" as="geometry"/>
                </mxCell>
                <mxCell id="KscysSoOjyOIIRiCbh5m-63" value="FK" style="shape=partialRectangle;connectable=0;fillColor=none;top=0;left=0;bottom=0;right=0;editable=1;overflow=hidden;rounded=0;" parent="KscysSoOjyOIIRiCbh5m-62" vertex="1">
                    <mxGeometry width="30" height="20" as="geometry">
                        <mxRectangle width="30" height="20" as="alternateBounds"/>
                    </mxGeometry>
                </mxCell>
                <mxCell id="KscysSoOjyOIIRiCbh5m-64" value="user_id（integer）" style="shape=partialRectangle;connectable=0;fillColor=none;top=0;left=0;bottom=0;right=0;align=left;spacingLeft=6;overflow=hidden;rounded=0;" parent="KscysSoOjyOIIRiCbh5m-62" vertex="1">
                    <mxGeometry x="30" width="150" height="20" as="geometry">
                        <mxRectangle width="150" height="20" as="alternateBounds"/>
                    </mxGeometry>
                </mxCell>
                <mxCell id="KscysSoOjyOIIRiCbh5m-68" value="" style="shape=tableRow;horizontal=0;startSize=0;swimlaneHead=0;swimlaneBody=0;fillColor=none;collapsible=0;dropTarget=0;points=[[0,0.5],[1,0.5]];portConstraint=eastwest;top=0;left=0;right=0;bottom=0;rounded=0;" parent="KscysSoOjyOIIRiCbh5m-55" vertex="1">
                    <mxGeometry y="100" width="180" height="20" as="geometry"/>
                </mxCell>
                <mxCell id="KscysSoOjyOIIRiCbh5m-69" value="" style="shape=partialRectangle;connectable=0;fillColor=none;top=0;left=0;bottom=0;right=0;editable=1;overflow=hidden;rounded=0;" parent="KscysSoOjyOIIRiCbh5m-68" vertex="1">
                    <mxGeometry width="30" height="20" as="geometry">
                        <mxRectangle width="30" height="20" as="alternateBounds"/>
                    </mxGeometry>
                </mxCell>
                <mxCell id="KscysSoOjyOIIRiCbh5m-70" value="created_at（datetime）" style="shape=partialRectangle;connectable=0;fillColor=none;top=0;left=0;bottom=0;right=0;align=left;spacingLeft=6;overflow=hidden;rounded=0;" parent="KscysSoOjyOIIRiCbh5m-68" vertex="1">
                    <mxGeometry x="30" width="150" height="20" as="geometry">
                        <mxRectangle width="150" height="20" as="alternateBounds"/>
                    </mxGeometry>
                </mxCell>
                <mxCell id="KscysSoOjyOIIRiCbh5m-71" value="" style="shape=tableRow;horizontal=0;startSize=0;swimlaneHead=0;swimlaneBody=0;fillColor=none;collapsible=0;dropTarget=0;points=[[0,0.5],[1,0.5]];portConstraint=eastwest;top=0;left=0;right=0;bottom=0;rounded=0;" parent="KscysSoOjyOIIRiCbh5m-55" vertex="1">
                    <mxGeometry y="120" width="180" height="20" as="geometry"/>
                </mxCell>
                <mxCell id="KscysSoOjyOIIRiCbh5m-72" value="" style="shape=partialRectangle;connectable=0;fillColor=none;top=0;left=0;bottom=0;right=0;editable=1;overflow=hidden;rounded=0;" parent="KscysSoOjyOIIRiCbh5m-71" vertex="1">
                    <mxGeometry width="30" height="20" as="geometry">
                        <mxRectangle width="30" height="20" as="alternateBounds"/>
                    </mxGeometry>
                </mxCell>
                <mxCell id="KscysSoOjyOIIRiCbh5m-73" value="updated_at（datetime）" style="shape=partialRectangle;connectable=0;fillColor=none;top=0;left=0;bottom=0;right=0;align=left;spacingLeft=6;overflow=hidden;rounded=0;" parent="KscysSoOjyOIIRiCbh5m-71" vertex="1">
                    <mxGeometry x="30" width="150" height="20" as="geometry">
                        <mxRectangle width="150" height="20" as="alternateBounds"/>
                    </mxGeometry>
                </mxCell>
                <mxCell id="KscysSoOjyOIIRiCbh5m-74" value="scenes" style="shape=table;startSize=20;container=1;collapsible=1;childLayout=tableLayout;fixedRows=1;rowLines=0;fontStyle=1;align=center;resizeLast=1;rounded=0;" parent="1" vertex="1">
                    <mxGeometry x="720" y="-140" width="180" height="100" as="geometry"/>
                </mxCell>
                <mxCell id="KscysSoOjyOIIRiCbh5m-75" value="" style="shape=tableRow;horizontal=0;startSize=0;swimlaneHead=0;swimlaneBody=0;fillColor=none;collapsible=0;dropTarget=0;points=[[0,0.5],[1,0.5]];portConstraint=eastwest;top=0;left=0;right=0;bottom=1;rounded=0;" parent="KscysSoOjyOIIRiCbh5m-74" vertex="1">
                    <mxGeometry y="20" width="180" height="20" as="geometry"/>
                </mxCell>
                <mxCell id="KscysSoOjyOIIRiCbh5m-76" value="PK" style="shape=partialRectangle;connectable=0;fillColor=none;top=0;left=0;bottom=0;right=0;fontStyle=1;overflow=hidden;rounded=0;" parent="KscysSoOjyOIIRiCbh5m-75" vertex="1">
                    <mxGeometry width="30" height="20" as="geometry">
                        <mxRectangle width="30" height="20" as="alternateBounds"/>
                    </mxGeometry>
                </mxCell>
                <mxCell id="KscysSoOjyOIIRiCbh5m-77" value="ID" style="shape=partialRectangle;connectable=0;fillColor=none;top=0;left=0;bottom=0;right=0;align=left;spacingLeft=6;fontStyle=5;overflow=hidden;rounded=0;" parent="KscysSoOjyOIIRiCbh5m-75" vertex="1">
                    <mxGeometry x="30" width="150" height="20" as="geometry">
                        <mxRectangle width="150" height="20" as="alternateBounds"/>
                    </mxGeometry>
                </mxCell>
                <mxCell id="KscysSoOjyOIIRiCbh5m-78" value="" style="shape=tableRow;horizontal=0;startSize=0;swimlaneHead=0;swimlaneBody=0;fillColor=none;collapsible=0;dropTarget=0;points=[[0,0.5],[1,0.5]];portConstraint=eastwest;top=0;left=0;right=0;bottom=0;rounded=0;" parent="KscysSoOjyOIIRiCbh5m-74" vertex="1">
                    <mxGeometry y="40" width="180" height="20" as="geometry"/>
                </mxCell>
                <mxCell id="KscysSoOjyOIIRiCbh5m-79" value="" style="shape=partialRectangle;connectable=0;fillColor=none;top=0;left=0;bottom=0;right=0;editable=1;overflow=hidden;rounded=0;" parent="KscysSoOjyOIIRiCbh5m-78" vertex="1">
                    <mxGeometry width="30" height="20" as="geometry">
                        <mxRectangle width="30" height="20" as="alternateBounds"/>
                    </mxGeometry>
                </mxCell>
                <mxCell id="KscysSoOjyOIIRiCbh5m-80" value="name（string）" style="shape=partialRectangle;connectable=0;fillColor=none;top=0;left=0;bottom=0;right=0;align=left;spacingLeft=6;overflow=hidden;rounded=0;" parent="KscysSoOjyOIIRiCbh5m-78" vertex="1">
                    <mxGeometry x="30" width="150" height="20" as="geometry">
                        <mxRectangle width="150" height="20" as="alternateBounds"/>
                    </mxGeometry>
                </mxCell>
                <mxCell id="KscysSoOjyOIIRiCbh5m-81" value="" style="shape=tableRow;horizontal=0;startSize=0;swimlaneHead=0;swimlaneBody=0;fillColor=none;collapsible=0;dropTarget=0;points=[[0,0.5],[1,0.5]];portConstraint=eastwest;top=0;left=0;right=0;bottom=0;rounded=0;" parent="KscysSoOjyOIIRiCbh5m-74" vertex="1">
                    <mxGeometry y="60" width="180" height="20" as="geometry"/>
                </mxCell>
                <mxCell id="KscysSoOjyOIIRiCbh5m-82" value="" style="shape=partialRectangle;connectable=0;fillColor=none;top=0;left=0;bottom=0;right=0;editable=1;overflow=hidden;rounded=0;" parent="KscysSoOjyOIIRiCbh5m-81" vertex="1">
                    <mxGeometry width="30" height="20" as="geometry">
                        <mxRectangle width="30" height="20" as="alternateBounds"/>
                    </mxGeometry>
                </mxCell>
                <mxCell id="KscysSoOjyOIIRiCbh5m-83" value="created_at（datetime）" style="shape=partialRectangle;connectable=0;fillColor=none;top=0;left=0;bottom=0;right=0;align=left;spacingLeft=6;overflow=hidden;rounded=0;" parent="KscysSoOjyOIIRiCbh5m-81" vertex="1">
                    <mxGeometry x="30" width="150" height="20" as="geometry">
                        <mxRectangle width="150" height="20" as="alternateBounds"/>
                    </mxGeometry>
                </mxCell>
                <mxCell id="KscysSoOjyOIIRiCbh5m-84" value="" style="shape=tableRow;horizontal=0;startSize=0;swimlaneHead=0;swimlaneBody=0;fillColor=none;collapsible=0;dropTarget=0;points=[[0,0.5],[1,0.5]];portConstraint=eastwest;top=0;left=0;right=0;bottom=0;rounded=0;" parent="KscysSoOjyOIIRiCbh5m-74" vertex="1">
                    <mxGeometry y="80" width="180" height="20" as="geometry"/>
                </mxCell>
                <mxCell id="KscysSoOjyOIIRiCbh5m-85" value="" style="shape=partialRectangle;connectable=0;fillColor=none;top=0;left=0;bottom=0;right=0;editable=1;overflow=hidden;rounded=0;" parent="KscysSoOjyOIIRiCbh5m-84" vertex="1">
                    <mxGeometry width="30" height="20" as="geometry">
                        <mxRectangle width="30" height="20" as="alternateBounds"/>
                    </mxGeometry>
                </mxCell>
                <mxCell id="KscysSoOjyOIIRiCbh5m-86" value="updated_at（datetime）" style="shape=partialRectangle;connectable=0;fillColor=none;top=0;left=0;bottom=0;right=0;align=left;spacingLeft=6;overflow=hidden;rounded=0;" parent="KscysSoOjyOIIRiCbh5m-84" vertex="1">
                    <mxGeometry x="30" width="150" height="20" as="geometry">
                        <mxRectangle width="150" height="20" as="alternateBounds"/>
                    </mxGeometry>
                </mxCell>
                <mxCell id="KscysSoOjyOIIRiCbh5m-87" value="photos" style="shape=table;startSize=20;container=1;collapsible=1;childLayout=tableLayout;fixedRows=1;rowLines=0;fontStyle=1;align=center;resizeLast=1;rounded=0;" parent="1" vertex="1">
                    <mxGeometry x="520" y="240" width="240" height="440" as="geometry"/>
                </mxCell>
                <mxCell id="KscysSoOjyOIIRiCbh5m-88" value="" style="shape=tableRow;horizontal=0;startSize=0;swimlaneHead=0;swimlaneBody=0;fillColor=none;collapsible=0;dropTarget=0;points=[[0,0.5],[1,0.5]];portConstraint=eastwest;top=0;left=0;right=0;bottom=1;rounded=0;" parent="KscysSoOjyOIIRiCbh5m-87" vertex="1">
                    <mxGeometry y="20" width="240" height="20" as="geometry"/>
                </mxCell>
                <mxCell id="KscysSoOjyOIIRiCbh5m-89" value="PK" style="shape=partialRectangle;connectable=0;fillColor=none;top=0;left=0;bottom=0;right=0;fontStyle=1;overflow=hidden;rounded=0;" parent="KscysSoOjyOIIRiCbh5m-88" vertex="1">
                    <mxGeometry width="30" height="20" as="geometry">
                        <mxRectangle width="30" height="20" as="alternateBounds"/>
                    </mxGeometry>
                </mxCell>
                <mxCell id="KscysSoOjyOIIRiCbh5m-90" value="ID" style="shape=partialRectangle;connectable=0;fillColor=none;top=0;left=0;bottom=0;right=0;align=left;spacingLeft=6;fontStyle=5;overflow=hidden;rounded=0;" parent="KscysSoOjyOIIRiCbh5m-88" vertex="1">
                    <mxGeometry x="30" width="210" height="20" as="geometry">
                        <mxRectangle width="210" height="20" as="alternateBounds"/>
                    </mxGeometry>
                </mxCell>
                <mxCell id="KscysSoOjyOIIRiCbh5m-91" value="" style="shape=tableRow;horizontal=0;startSize=0;swimlaneHead=0;swimlaneBody=0;fillColor=none;collapsible=0;dropTarget=0;points=[[0,0.5],[1,0.5]];portConstraint=eastwest;top=0;left=0;right=0;bottom=0;rounded=0;" parent="KscysSoOjyOIIRiCbh5m-87" vertex="1">
                    <mxGeometry y="40" width="240" height="20" as="geometry"/>
                </mxCell>
                <mxCell id="KscysSoOjyOIIRiCbh5m-92" value="" style="shape=partialRectangle;connectable=0;fillColor=none;top=0;left=0;bottom=0;right=0;editable=1;overflow=hidden;rounded=0;" parent="KscysSoOjyOIIRiCbh5m-91" vertex="1">
                    <mxGeometry width="30" height="20" as="geometry">
                        <mxRectangle width="30" height="20" as="alternateBounds"/>
                    </mxGeometry>
                </mxCell>
                <mxCell id="KscysSoOjyOIIRiCbh5m-93" value="file_url（string）" style="shape=partialRectangle;connectable=0;fillColor=none;top=0;left=0;bottom=0;right=0;align=left;spacingLeft=6;overflow=hidden;rounded=0;" parent="KscysSoOjyOIIRiCbh5m-91" vertex="1">
                    <mxGeometry x="30" width="210" height="20" as="geometry">
                        <mxRectangle width="210" height="20" as="alternateBounds"/>
                    </mxGeometry>
                </mxCell>
                <mxCell id="KscysSoOjyOIIRiCbh5m-94" value="" style="shape=tableRow;horizontal=0;startSize=0;swimlaneHead=0;swimlaneBody=0;fillColor=none;collapsible=0;dropTarget=0;points=[[0,0.5],[1,0.5]];portConstraint=eastwest;top=0;left=0;right=0;bottom=0;rounded=0;" parent="KscysSoOjyOIIRiCbh5m-87" vertex="1">
                    <mxGeometry y="60" width="240" height="20" as="geometry"/>
                </mxCell>
                <mxCell id="KscysSoOjyOIIRiCbh5m-95" value="" style="shape=partialRectangle;connectable=0;fillColor=none;top=0;left=0;bottom=0;right=0;editable=1;overflow=hidden;rounded=0;" parent="KscysSoOjyOIIRiCbh5m-94" vertex="1">
                    <mxGeometry width="30" height="20" as="geometry">
                        <mxRectangle width="30" height="20" as="alternateBounds"/>
                    </mxGeometry>
                </mxCell>
                <mxCell id="KscysSoOjyOIIRiCbh5m-96" value="title（string）" style="shape=partialRectangle;connectable=0;fillColor=none;top=0;left=0;bottom=0;right=0;align=left;spacingLeft=6;overflow=hidden;rounded=0;" parent="KscysSoOjyOIIRiCbh5m-94" vertex="1">
                    <mxGeometry x="30" width="210" height="20" as="geometry">
                        <mxRectangle width="210" height="20" as="alternateBounds"/>
                    </mxGeometry>
                </mxCell>
                <mxCell id="KscysSoOjyOIIRiCbh5m-97" value="" style="shape=tableRow;horizontal=0;startSize=0;swimlaneHead=0;swimlaneBody=0;fillColor=none;collapsible=0;dropTarget=0;points=[[0,0.5],[1,0.5]];portConstraint=eastwest;top=0;left=0;right=0;bottom=0;rounded=0;" parent="KscysSoOjyOIIRiCbh5m-87" vertex="1">
                    <mxGeometry y="80" width="240" height="20" as="geometry"/>
                </mxCell>
                <mxCell id="KscysSoOjyOIIRiCbh5m-98" value="" style="shape=partialRectangle;connectable=0;fillColor=none;top=0;left=0;bottom=0;right=0;editable=1;overflow=hidden;rounded=0;" parent="KscysSoOjyOIIRiCbh5m-97" vertex="1">
                    <mxGeometry width="30" height="20" as="geometry">
                        <mxRectangle width="30" height="20" as="alternateBounds"/>
                    </mxGeometry>
                </mxCell>
                <mxCell id="KscysSoOjyOIIRiCbh5m-99" value="description（text）" style="shape=partialRectangle;connectable=0;fillColor=none;top=0;left=0;bottom=0;right=0;align=left;spacingLeft=6;overflow=hidden;rounded=0;" parent="KscysSoOjyOIIRiCbh5m-97" vertex="1">
                    <mxGeometry x="30" width="210" height="20" as="geometry">
                        <mxRectangle width="210" height="20" as="alternateBounds"/>
                    </mxGeometry>
                </mxCell>
                <mxCell id="KscysSoOjyOIIRiCbh5m-100" value="" style="shape=tableRow;horizontal=0;startSize=0;swimlaneHead=0;swimlaneBody=0;fillColor=none;collapsible=0;dropTarget=0;points=[[0,0.5],[1,0.5]];portConstraint=eastwest;top=0;left=0;right=0;bottom=0;rounded=0;" parent="KscysSoOjyOIIRiCbh5m-87" vertex="1">
                    <mxGeometry y="100" width="240" height="20" as="geometry"/>
                </mxCell>
                <mxCell id="KscysSoOjyOIIRiCbh5m-101" value="" style="shape=partialRectangle;connectable=0;fillColor=none;top=0;left=0;bottom=0;right=0;editable=1;overflow=hidden;rounded=0;" parent="KscysSoOjyOIIRiCbh5m-100" vertex="1">
                    <mxGeometry width="30" height="20" as="geometry">
                        <mxRectangle width="30" height="20" as="alternateBounds"/>
                    </mxGeometry>
                </mxCell>
                <mxCell id="KscysSoOjyOIIRiCbh5m-102" value="gps_latitude（float）" style="shape=partialRectangle;connectable=0;fillColor=none;top=0;left=0;bottom=0;right=0;align=left;spacingLeft=6;overflow=hidden;rounded=0;" parent="KscysSoOjyOIIRiCbh5m-100" vertex="1">
                    <mxGeometry x="30" width="210" height="20" as="geometry">
                        <mxRectangle width="210" height="20" as="alternateBounds"/>
                    </mxGeometry>
                </mxCell>
                <mxCell id="KscysSoOjyOIIRiCbh5m-103" value="" style="shape=tableRow;horizontal=0;startSize=0;swimlaneHead=0;swimlaneBody=0;fillColor=none;collapsible=0;dropTarget=0;points=[[0,0.5],[1,0.5]];portConstraint=eastwest;top=0;left=0;right=0;bottom=0;rounded=0;" parent="KscysSoOjyOIIRiCbh5m-87" vertex="1">
                    <mxGeometry y="120" width="240" height="20" as="geometry"/>
                </mxCell>
                <mxCell id="KscysSoOjyOIIRiCbh5m-104" value="" style="shape=partialRectangle;connectable=0;fillColor=none;top=0;left=0;bottom=0;right=0;editable=1;overflow=hidden;rounded=0;" parent="KscysSoOjyOIIRiCbh5m-103" vertex="1">
                    <mxGeometry width="30" height="20" as="geometry">
                        <mxRectangle width="30" height="20" as="alternateBounds"/>
                    </mxGeometry>
                </mxCell>
                <mxCell id="KscysSoOjyOIIRiCbh5m-105" value="gps_longitude（float）" style="shape=partialRectangle;connectable=0;fillColor=none;top=0;left=0;bottom=0;right=0;align=left;spacingLeft=6;overflow=hidden;rounded=0;" parent="KscysSoOjyOIIRiCbh5m-103" vertex="1">
                    <mxGeometry x="30" width="210" height="20" as="geometry">
                        <mxRectangle width="210" height="20" as="alternateBounds"/>
                    </mxGeometry>
                </mxCell>
                <mxCell id="KscysSoOjyOIIRiCbh5m-106" value="" style="shape=tableRow;horizontal=0;startSize=0;swimlaneHead=0;swimlaneBody=0;fillColor=none;collapsible=0;dropTarget=0;points=[[0,0.5],[1,0.5]];portConstraint=eastwest;top=0;left=0;right=0;bottom=0;rounded=0;" parent="KscysSoOjyOIIRiCbh5m-87" vertex="1">
                    <mxGeometry y="140" width="240" height="20" as="geometry"/>
                </mxCell>
                <mxCell id="KscysSoOjyOIIRiCbh5m-107" value="" style="shape=partialRectangle;connectable=0;fillColor=none;top=0;left=0;bottom=0;right=0;editable=1;overflow=hidden;rounded=0;" parent="KscysSoOjyOIIRiCbh5m-106" vertex="1">
                    <mxGeometry width="30" height="20" as="geometry">
                        <mxRectangle width="30" height="20" as="alternateBounds"/>
                    </mxGeometry>
                </mxCell>
                <mxCell id="KscysSoOjyOIIRiCbh5m-108" value="camera（string）" style="shape=partialRectangle;connectable=0;fillColor=none;top=0;left=0;bottom=0;right=0;align=left;spacingLeft=6;overflow=hidden;rounded=0;" parent="KscysSoOjyOIIRiCbh5m-106" vertex="1">
                    <mxGeometry x="30" width="210" height="20" as="geometry">
                        <mxRectangle width="210" height="20" as="alternateBounds"/>
                    </mxGeometry>
                </mxCell>
                <mxCell id="KscysSoOjyOIIRiCbh5m-109" value="" style="shape=tableRow;horizontal=0;startSize=0;swimlaneHead=0;swimlaneBody=0;fillColor=none;collapsible=0;dropTarget=0;points=[[0,0.5],[1,0.5]];portConstraint=eastwest;top=0;left=0;right=0;bottom=0;rounded=0;" parent="KscysSoOjyOIIRiCbh5m-87" vertex="1">
                    <mxGeometry y="160" width="240" height="20" as="geometry"/>
                </mxCell>
                <mxCell id="KscysSoOjyOIIRiCbh5m-110" value="" style="shape=partialRectangle;connectable=0;fillColor=none;top=0;left=0;bottom=0;right=0;editable=1;overflow=hidden;rounded=0;" parent="KscysSoOjyOIIRiCbh5m-109" vertex="1">
                    <mxGeometry width="30" height="20" as="geometry">
                        <mxRectangle width="30" height="20" as="alternateBounds"/>
                    </mxGeometry>
                </mxCell>
                <mxCell id="KscysSoOjyOIIRiCbh5m-111" value="lens（string）" style="shape=partialRectangle;connectable=0;fillColor=none;top=0;left=0;bottom=0;right=0;align=left;spacingLeft=6;overflow=hidden;rounded=0;" parent="KscysSoOjyOIIRiCbh5m-109" vertex="1">
                    <mxGeometry x="30" width="210" height="20" as="geometry">
                        <mxRectangle width="210" height="20" as="alternateBounds"/>
                    </mxGeometry>
                </mxCell>
                <mxCell id="KscysSoOjyOIIRiCbh5m-112" value="" style="shape=tableRow;horizontal=0;startSize=0;swimlaneHead=0;swimlaneBody=0;fillColor=none;collapsible=0;dropTarget=0;points=[[0,0.5],[1,0.5]];portConstraint=eastwest;top=0;left=0;right=0;bottom=0;rounded=0;" parent="KscysSoOjyOIIRiCbh5m-87" vertex="1">
                    <mxGeometry y="180" width="240" height="20" as="geometry"/>
                </mxCell>
                <mxCell id="KscysSoOjyOIIRiCbh5m-113" value="" style="shape=partialRectangle;connectable=0;fillColor=none;top=0;left=0;bottom=0;right=0;editable=1;overflow=hidden;rounded=0;" parent="KscysSoOjyOIIRiCbh5m-112" vertex="1">
                    <mxGeometry width="30" height="20" as="geometry">
                        <mxRectangle width="30" height="20" as="alternateBounds"/>
                    </mxGeometry>
                </mxCell>
                <mxCell id="KscysSoOjyOIIRiCbh5m-114" value="ISO_sensitivity（integer）" style="shape=partialRectangle;connectable=0;fillColor=none;top=0;left=0;bottom=0;right=0;align=left;spacingLeft=6;overflow=hidden;rounded=0;" parent="KscysSoOjyOIIRiCbh5m-112" vertex="1">
                    <mxGeometry x="30" width="210" height="20" as="geometry">
                        <mxRectangle width="210" height="20" as="alternateBounds"/>
                    </mxGeometry>
                </mxCell>
                <mxCell id="KscysSoOjyOIIRiCbh5m-115" value="" style="shape=tableRow;horizontal=0;startSize=0;swimlaneHead=0;swimlaneBody=0;fillColor=none;collapsible=0;dropTarget=0;points=[[0,0.5],[1,0.5]];portConstraint=eastwest;top=0;left=0;right=0;bottom=0;rounded=0;" parent="KscysSoOjyOIIRiCbh5m-87" vertex="1">
                    <mxGeometry y="200" width="240" height="20" as="geometry"/>
                </mxCell>
                <mxCell id="KscysSoOjyOIIRiCbh5m-116" value="" style="shape=partialRectangle;connectable=0;fillColor=none;top=0;left=0;bottom=0;right=0;editable=1;overflow=hidden;rounded=0;" parent="KscysSoOjyOIIRiCbh5m-115" vertex="1">
                    <mxGeometry width="30" height="20" as="geometry">
                        <mxRectangle width="30" height="20" as="alternateBounds"/>
                    </mxGeometry>
                </mxCell>
                <mxCell id="KscysSoOjyOIIRiCbh5m-117" value="shutter_speed （string）" style="shape=partialRectangle;connectable=0;fillColor=none;top=0;left=0;bottom=0;right=0;align=left;spacingLeft=6;overflow=hidden;rounded=0;" parent="KscysSoOjyOIIRiCbh5m-115" vertex="1">
                    <mxGeometry x="30" width="210" height="20" as="geometry">
                        <mxRectangle width="210" height="20" as="alternateBounds"/>
                    </mxGeometry>
                </mxCell>
                <mxCell id="KscysSoOjyOIIRiCbh5m-118" value="" style="shape=tableRow;horizontal=0;startSize=0;swimlaneHead=0;swimlaneBody=0;fillColor=none;collapsible=0;dropTarget=0;points=[[0,0.5],[1,0.5]];portConstraint=eastwest;top=0;left=0;right=0;bottom=0;rounded=0;" parent="KscysSoOjyOIIRiCbh5m-87" vertex="1">
                    <mxGeometry y="220" width="240" height="20" as="geometry"/>
                </mxCell>
                <mxCell id="KscysSoOjyOIIRiCbh5m-119" value="" style="shape=partialRectangle;connectable=0;fillColor=none;top=0;left=0;bottom=0;right=0;editable=1;overflow=hidden;rounded=0;" parent="KscysSoOjyOIIRiCbh5m-118" vertex="1">
                    <mxGeometry width="30" height="20" as="geometry">
                        <mxRectangle width="30" height="20" as="alternateBounds"/>
                    </mxGeometry>
                </mxCell>
                <mxCell id="KscysSoOjyOIIRiCbh5m-120" value="exposure_compensation（integer）" style="shape=partialRectangle;connectable=0;fillColor=none;top=0;left=0;bottom=0;right=0;align=left;spacingLeft=6;overflow=hidden;rounded=0;" parent="KscysSoOjyOIIRiCbh5m-118" vertex="1">
                    <mxGeometry x="30" width="210" height="20" as="geometry">
                        <mxRectangle width="210" height="20" as="alternateBounds"/>
                    </mxGeometry>
                </mxCell>
                <mxCell id="KscysSoOjyOIIRiCbh5m-121" value="" style="shape=tableRow;horizontal=0;startSize=0;swimlaneHead=0;swimlaneBody=0;fillColor=none;collapsible=0;dropTarget=0;points=[[0,0.5],[1,0.5]];portConstraint=eastwest;top=0;left=0;right=0;bottom=0;rounded=0;" parent="KscysSoOjyOIIRiCbh5m-87" vertex="1">
                    <mxGeometry y="240" width="240" height="20" as="geometry"/>
                </mxCell>
                <mxCell id="KscysSoOjyOIIRiCbh5m-122" value="" style="shape=partialRectangle;connectable=0;fillColor=none;top=0;left=0;bottom=0;right=0;editable=1;overflow=hidden;rounded=0;" parent="KscysSoOjyOIIRiCbh5m-121" vertex="1">
                    <mxGeometry width="30" height="20" as="geometry">
                        <mxRectangle width="30" height="20" as="alternateBounds"/>
                    </mxGeometry>
                </mxCell>
                <mxCell id="KscysSoOjyOIIRiCbh5m-123" value="aperture（integer）" style="shape=partialRectangle;connectable=0;fillColor=none;top=0;left=0;bottom=0;right=0;align=left;spacingLeft=6;overflow=hidden;rounded=0;" parent="KscysSoOjyOIIRiCbh5m-121" vertex="1">
                    <mxGeometry x="30" width="210" height="20" as="geometry">
                        <mxRectangle width="210" height="20" as="alternateBounds"/>
                    </mxGeometry>
                </mxCell>
                <mxCell id="KscysSoOjyOIIRiCbh5m-124" value="" style="shape=tableRow;horizontal=0;startSize=0;swimlaneHead=0;swimlaneBody=0;fillColor=none;collapsible=0;dropTarget=0;points=[[0,0.5],[1,0.5]];portConstraint=eastwest;top=0;left=0;right=0;bottom=0;rounded=0;" parent="KscysSoOjyOIIRiCbh5m-87" vertex="1">
                    <mxGeometry y="260" width="240" height="20" as="geometry"/>
                </mxCell>
                <mxCell id="KscysSoOjyOIIRiCbh5m-125" value="" style="shape=partialRectangle;connectable=0;fillColor=none;top=0;left=0;bottom=0;right=0;editable=1;overflow=hidden;rounded=0;" parent="KscysSoOjyOIIRiCbh5m-124" vertex="1">
                    <mxGeometry width="30" height="20" as="geometry">
                        <mxRectangle width="30" height="20" as="alternateBounds"/>
                    </mxGeometry>
                </mxCell>
                <mxCell id="KscysSoOjyOIIRiCbh5m-126" value="focal_length（string）" style="shape=partialRectangle;connectable=0;fillColor=none;top=0;left=0;bottom=0;right=0;align=left;spacingLeft=6;overflow=hidden;rounded=0;" parent="KscysSoOjyOIIRiCbh5m-124" vertex="1">
                    <mxGeometry x="30" width="210" height="20" as="geometry">
                        <mxRectangle width="210" height="20" as="alternateBounds"/>
                    </mxGeometry>
                </mxCell>
                <mxCell id="KscysSoOjyOIIRiCbh5m-127" value="" style="shape=tableRow;horizontal=0;startSize=0;swimlaneHead=0;swimlaneBody=0;fillColor=none;collapsible=0;dropTarget=0;points=[[0,0.5],[1,0.5]];portConstraint=eastwest;top=0;left=0;right=0;bottom=0;rounded=0;" parent="KscysSoOjyOIIRiCbh5m-87" vertex="1">
                    <mxGeometry y="280" width="240" height="20" as="geometry"/>
                </mxCell>
                <mxCell id="KscysSoOjyOIIRiCbh5m-128" value="" style="shape=partialRectangle;connectable=0;fillColor=none;top=0;left=0;bottom=0;right=0;editable=1;overflow=hidden;rounded=0;" parent="KscysSoOjyOIIRiCbh5m-127" vertex="1">
                    <mxGeometry width="30" height="20" as="geometry">
                        <mxRectangle width="30" height="20" as="alternateBounds"/>
                    </mxGeometry>
                </mxCell>
                <mxCell id="KscysSoOjyOIIRiCbh5m-129" value="white_balance（string）" style="shape=partialRectangle;connectable=0;fillColor=none;top=0;left=0;bottom=0;right=0;align=left;spacingLeft=6;overflow=hidden;rounded=0;" parent="KscysSoOjyOIIRiCbh5m-127" vertex="1">
                    <mxGeometry x="30" width="210" height="20" as="geometry">
                        <mxRectangle width="210" height="20" as="alternateBounds"/>
                    </mxGeometry>
                </mxCell>
                <mxCell id="KscysSoOjyOIIRiCbh5m-130" value="" style="shape=tableRow;horizontal=0;startSize=0;swimlaneHead=0;swimlaneBody=0;fillColor=none;collapsible=0;dropTarget=0;points=[[0,0.5],[1,0.5]];portConstraint=eastwest;top=0;left=0;right=0;bottom=0;rounded=0;" parent="KscysSoOjyOIIRiCbh5m-87" vertex="1">
                    <mxGeometry y="300" width="240" height="20" as="geometry"/>
                </mxCell>
                <mxCell id="KscysSoOjyOIIRiCbh5m-131" value="" style="shape=partialRectangle;connectable=0;fillColor=none;top=0;left=0;bottom=0;right=0;editable=1;overflow=hidden;rounded=0;" parent="KscysSoOjyOIIRiCbh5m-130" vertex="1">
                    <mxGeometry width="30" height="20" as="geometry">
                        <mxRectangle width="30" height="20" as="alternateBounds"/>
                    </mxGeometry>
                </mxCell>
                <mxCell id="KscysSoOjyOIIRiCbh5m-132" value="shooting_mode（string）" style="shape=partialRectangle;connectable=0;fillColor=none;top=0;left=0;bottom=0;right=0;align=left;spacingLeft=6;overflow=hidden;rounded=0;" parent="KscysSoOjyOIIRiCbh5m-130" vertex="1">
                    <mxGeometry x="30" width="210" height="20" as="geometry">
                        <mxRectangle width="210" height="20" as="alternateBounds"/>
                    </mxGeometry>
                </mxCell>
                <mxCell id="KscysSoOjyOIIRiCbh5m-133" value="" style="shape=tableRow;horizontal=0;startSize=0;swimlaneHead=0;swimlaneBody=0;fillColor=none;collapsible=0;dropTarget=0;points=[[0,0.5],[1,0.5]];portConstraint=eastwest;top=0;left=0;right=0;bottom=0;rounded=0;" parent="KscysSoOjyOIIRiCbh5m-87" vertex="1">
                    <mxGeometry y="320" width="240" height="20" as="geometry"/>
                </mxCell>
                <mxCell id="KscysSoOjyOIIRiCbh5m-134" value="" style="shape=partialRectangle;connectable=0;fillColor=none;top=0;left=0;bottom=0;right=0;editable=1;overflow=hidden;rounded=0;" parent="KscysSoOjyOIIRiCbh5m-133" vertex="1">
                    <mxGeometry width="30" height="20" as="geometry">
                        <mxRectangle width="30" height="20" as="alternateBounds"/>
                    </mxGeometry>
                </mxCell>
                <mxCell id="KscysSoOjyOIIRiCbh5m-135" value="image_size_width （integer）" style="shape=partialRectangle;connectable=0;fillColor=none;top=0;left=0;bottom=0;right=0;align=left;spacingLeft=6;overflow=hidden;rounded=0;" parent="KscysSoOjyOIIRiCbh5m-133" vertex="1">
                    <mxGeometry x="30" width="210" height="20" as="geometry">
                        <mxRectangle width="210" height="20" as="alternateBounds"/>
                    </mxGeometry>
                </mxCell>
                <mxCell id="KscysSoOjyOIIRiCbh5m-136" value="" style="shape=tableRow;horizontal=0;startSize=0;swimlaneHead=0;swimlaneBody=0;fillColor=none;collapsible=0;dropTarget=0;points=[[0,0.5],[1,0.5]];portConstraint=eastwest;top=0;left=0;right=0;bottom=0;rounded=0;" parent="KscysSoOjyOIIRiCbh5m-87" vertex="1">
                    <mxGeometry y="340" width="240" height="20" as="geometry"/>
                </mxCell>
                <mxCell id="KscysSoOjyOIIRiCbh5m-137" value="" style="shape=partialRectangle;connectable=0;fillColor=none;top=0;left=0;bottom=0;right=0;editable=1;overflow=hidden;rounded=0;" parent="KscysSoOjyOIIRiCbh5m-136" vertex="1">
                    <mxGeometry width="30" height="20" as="geometry">
                        <mxRectangle width="30" height="20" as="alternateBounds"/>
                    </mxGeometry>
                </mxCell>
                <mxCell id="KscysSoOjyOIIRiCbh5m-138" value="image_size_height （integer）" style="shape=partialRectangle;connectable=0;fillColor=none;top=0;left=0;bottom=0;right=0;align=left;spacingLeft=6;overflow=hidden;rounded=0;" parent="KscysSoOjyOIIRiCbh5m-136" vertex="1">
                    <mxGeometry x="30" width="210" height="20" as="geometry">
                        <mxRectangle width="210" height="20" as="alternateBounds"/>
                    </mxGeometry>
                </mxCell>
                <mxCell id="KscysSoOjyOIIRiCbh5m-139" value="" style="shape=tableRow;horizontal=0;startSize=0;swimlaneHead=0;swimlaneBody=0;fillColor=none;collapsible=0;dropTarget=0;points=[[0,0.5],[1,0.5]];portConstraint=eastwest;top=0;left=0;right=0;bottom=0;rounded=0;" parent="KscysSoOjyOIIRiCbh5m-87" vertex="1">
                    <mxGeometry y="360" width="240" height="20" as="geometry"/>
                </mxCell>
                <mxCell id="KscysSoOjyOIIRiCbh5m-140" value="FK" style="shape=partialRectangle;connectable=0;fillColor=none;top=0;left=0;bottom=0;right=0;editable=1;overflow=hidden;rounded=0;" parent="KscysSoOjyOIIRiCbh5m-139" vertex="1">
                    <mxGeometry width="30" height="20" as="geometry">
                        <mxRectangle width="30" height="20" as="alternateBounds"/>
                    </mxGeometry>
                </mxCell>
                <mxCell id="KscysSoOjyOIIRiCbh5m-141" value="user_id（integer）" style="shape=partialRectangle;connectable=0;fillColor=none;top=0;left=0;bottom=0;right=0;align=left;spacingLeft=6;overflow=hidden;rounded=0;" parent="KscysSoOjyOIIRiCbh5m-139" vertex="1">
                    <mxGeometry x="30" width="210" height="20" as="geometry">
                        <mxRectangle width="210" height="20" as="alternateBounds"/>
                    </mxGeometry>
                </mxCell>
                <mxCell id="KscysSoOjyOIIRiCbh5m-142" value="" style="shape=tableRow;horizontal=0;startSize=0;swimlaneHead=0;swimlaneBody=0;fillColor=none;collapsible=0;dropTarget=0;points=[[0,0.5],[1,0.5]];portConstraint=eastwest;top=0;left=0;right=0;bottom=0;rounded=0;" parent="KscysSoOjyOIIRiCbh5m-87" vertex="1">
                    <mxGeometry y="380" width="240" height="20" as="geometry"/>
                </mxCell>
                <mxCell id="KscysSoOjyOIIRiCbh5m-143" value="FK" style="shape=partialRectangle;connectable=0;fillColor=none;top=0;left=0;bottom=0;right=0;editable=1;overflow=hidden;rounded=0;" parent="KscysSoOjyOIIRiCbh5m-142" vertex="1">
                    <mxGeometry width="30" height="20" as="geometry">
                        <mxRectangle width="30" height="20" as="alternateBounds"/>
                    </mxGeometry>
                </mxCell>
                <mxCell id="KscysSoOjyOIIRiCbh5m-144" value="category_id（integer）" style="shape=partialRectangle;connectable=0;fillColor=none;top=0;left=0;bottom=0;right=0;align=left;spacingLeft=6;overflow=hidden;rounded=0;" parent="KscysSoOjyOIIRiCbh5m-142" vertex="1">
                    <mxGeometry x="30" width="210" height="20" as="geometry">
                        <mxRectangle width="210" height="20" as="alternateBounds"/>
                    </mxGeometry>
                </mxCell>
                <mxCell id="KscysSoOjyOIIRiCbh5m-145" value="" style="shape=tableRow;horizontal=0;startSize=0;swimlaneHead=0;swimlaneBody=0;fillColor=none;collapsible=0;dropTarget=0;points=[[0,0.5],[1,0.5]];portConstraint=eastwest;top=0;left=0;right=0;bottom=0;rounded=0;" parent="KscysSoOjyOIIRiCbh5m-87" vertex="1">
                    <mxGeometry y="400" width="240" height="20" as="geometry"/>
                </mxCell>
                <mxCell id="KscysSoOjyOIIRiCbh5m-146" value="" style="shape=partialRectangle;connectable=0;fillColor=none;top=0;left=0;bottom=0;right=0;editable=1;overflow=hidden;rounded=0;" parent="KscysSoOjyOIIRiCbh5m-145" vertex="1">
                    <mxGeometry width="30" height="20" as="geometry">
                        <mxRectangle width="30" height="20" as="alternateBounds"/>
                    </mxGeometry>
                </mxCell>
                <mxCell id="KscysSoOjyOIIRiCbh5m-147" value="updated_at（datetime）" style="shape=partialRectangle;connectable=0;fillColor=none;top=0;left=0;bottom=0;right=0;align=left;spacingLeft=6;overflow=hidden;rounded=0;" parent="KscysSoOjyOIIRiCbh5m-145" vertex="1">
                    <mxGeometry x="30" width="210" height="20" as="geometry">
                        <mxRectangle width="210" height="20" as="alternateBounds"/>
                    </mxGeometry>
                </mxCell>
                <mxCell id="KscysSoOjyOIIRiCbh5m-148" value="" style="shape=tableRow;horizontal=0;startSize=0;swimlaneHead=0;swimlaneBody=0;fillColor=none;collapsible=0;dropTarget=0;points=[[0,0.5],[1,0.5]];portConstraint=eastwest;top=0;left=0;right=0;bottom=0;rounded=0;" parent="KscysSoOjyOIIRiCbh5m-87" vertex="1">
                    <mxGeometry y="420" width="240" height="20" as="geometry"/>
                </mxCell>
                <mxCell id="KscysSoOjyOIIRiCbh5m-149" value="" style="shape=partialRectangle;connectable=0;fillColor=none;top=0;left=0;bottom=0;right=0;editable=1;overflow=hidden;rounded=0;" parent="KscysSoOjyOIIRiCbh5m-148" vertex="1">
                    <mxGeometry width="30" height="20" as="geometry">
                        <mxRectangle width="30" height="20" as="alternateBounds"/>
                    </mxGeometry>
                </mxCell>
                <mxCell id="KscysSoOjyOIIRiCbh5m-150" value="created_at（datetime）" style="shape=partialRectangle;connectable=0;fillColor=none;top=0;left=0;bottom=0;right=0;align=left;spacingLeft=6;overflow=hidden;rounded=0;" parent="KscysSoOjyOIIRiCbh5m-148" vertex="1">
                    <mxGeometry x="30" width="210" height="20" as="geometry">
                        <mxRectangle width="210" height="20" as="alternateBounds"/>
                    </mxGeometry>
                </mxCell>
                <mxCell id="KscysSoOjyOIIRiCbh5m-151" value="contests" style="shape=table;startSize=20;container=1;collapsible=1;childLayout=tableLayout;fixedRows=1;rowLines=0;fontStyle=1;align=center;resizeLast=1;rounded=0;" parent="1" vertex="1">
                    <mxGeometry x="-280" y="880" width="260" height="220" as="geometry"/>
                </mxCell>
                <mxCell id="KscysSoOjyOIIRiCbh5m-152" value="" style="shape=tableRow;horizontal=0;startSize=0;swimlaneHead=0;swimlaneBody=0;fillColor=none;collapsible=0;dropTarget=0;points=[[0,0.5],[1,0.5]];portConstraint=eastwest;top=0;left=0;right=0;bottom=1;rounded=0;" parent="KscysSoOjyOIIRiCbh5m-151" vertex="1">
                    <mxGeometry y="20" width="260" height="20" as="geometry"/>
                </mxCell>
                <mxCell id="KscysSoOjyOIIRiCbh5m-153" value="PK" style="shape=partialRectangle;connectable=0;fillColor=none;top=0;left=0;bottom=0;right=0;fontStyle=1;overflow=hidden;rounded=0;" parent="KscysSoOjyOIIRiCbh5m-152" vertex="1">
                    <mxGeometry width="30" height="20" as="geometry">
                        <mxRectangle width="30" height="20" as="alternateBounds"/>
                    </mxGeometry>
                </mxCell>
                <mxCell id="KscysSoOjyOIIRiCbh5m-154" value="ID" style="shape=partialRectangle;connectable=0;fillColor=none;top=0;left=0;bottom=0;right=0;align=left;spacingLeft=6;fontStyle=5;overflow=hidden;rounded=0;" parent="KscysSoOjyOIIRiCbh5m-152" vertex="1">
                    <mxGeometry x="30" width="230" height="20" as="geometry">
                        <mxRectangle width="230" height="20" as="alternateBounds"/>
                    </mxGeometry>
                </mxCell>
                <mxCell id="KscysSoOjyOIIRiCbh5m-155" value="" style="shape=tableRow;horizontal=0;startSize=0;swimlaneHead=0;swimlaneBody=0;fillColor=none;collapsible=0;dropTarget=0;points=[[0,0.5],[1,0.5]];portConstraint=eastwest;top=0;left=0;right=0;bottom=0;rounded=0;" parent="KscysSoOjyOIIRiCbh5m-151" vertex="1">
                    <mxGeometry y="40" width="260" height="20" as="geometry"/>
                </mxCell>
                <mxCell id="KscysSoOjyOIIRiCbh5m-156" value="" style="shape=partialRectangle;connectable=0;fillColor=none;top=0;left=0;bottom=0;right=0;editable=1;overflow=hidden;rounded=0;" parent="KscysSoOjyOIIRiCbh5m-155" vertex="1">
                    <mxGeometry width="30" height="20" as="geometry">
                        <mxRectangle width="30" height="20" as="alternateBounds"/>
                    </mxGeometry>
                </mxCell>
                <mxCell id="KscysSoOjyOIIRiCbh5m-157" value="title（string）" style="shape=partialRectangle;connectable=0;fillColor=none;top=0;left=0;bottom=0;right=0;align=left;spacingLeft=6;overflow=hidden;rounded=0;" parent="KscysSoOjyOIIRiCbh5m-155" vertex="1">
                    <mxGeometry x="30" width="230" height="20" as="geometry">
                        <mxRectangle width="230" height="20" as="alternateBounds"/>
                    </mxGeometry>
                </mxCell>
                <mxCell id="KscysSoOjyOIIRiCbh5m-158" value="" style="shape=tableRow;horizontal=0;startSize=0;swimlaneHead=0;swimlaneBody=0;fillColor=none;collapsible=0;dropTarget=0;points=[[0,0.5],[1,0.5]];portConstraint=eastwest;top=0;left=0;right=0;bottom=0;rounded=0;" parent="KscysSoOjyOIIRiCbh5m-151" vertex="1">
                    <mxGeometry y="60" width="260" height="20" as="geometry"/>
                </mxCell>
                <mxCell id="KscysSoOjyOIIRiCbh5m-159" value="" style="shape=partialRectangle;connectable=0;fillColor=none;top=0;left=0;bottom=0;right=0;editable=1;overflow=hidden;rounded=0;" parent="KscysSoOjyOIIRiCbh5m-158" vertex="1">
                    <mxGeometry width="30" height="20" as="geometry">
                        <mxRectangle width="30" height="20" as="alternateBounds"/>
                    </mxGeometry>
                </mxCell>
                <mxCell id="KscysSoOjyOIIRiCbh5m-160" value="description（text）" style="shape=partialRectangle;connectable=0;fillColor=none;top=0;left=0;bottom=0;right=0;align=left;spacingLeft=6;overflow=hidden;rounded=0;" parent="KscysSoOjyOIIRiCbh5m-158" vertex="1">
                    <mxGeometry x="30" width="230" height="20" as="geometry">
                        <mxRectangle width="230" height="20" as="alternateBounds"/>
                    </mxGeometry>
                </mxCell>
                <mxCell id="KscysSoOjyOIIRiCbh5m-161" value="" style="shape=tableRow;horizontal=0;startSize=0;swimlaneHead=0;swimlaneBody=0;fillColor=none;collapsible=0;dropTarget=0;points=[[0,0.5],[1,0.5]];portConstraint=eastwest;top=0;left=0;right=0;bottom=0;rounded=0;" parent="KscysSoOjyOIIRiCbh5m-151" vertex="1">
                    <mxGeometry y="80" width="260" height="20" as="geometry"/>
                </mxCell>
                <mxCell id="KscysSoOjyOIIRiCbh5m-162" value="" style="shape=partialRectangle;connectable=0;fillColor=none;top=0;left=0;bottom=0;right=0;editable=1;overflow=hidden;rounded=0;" parent="KscysSoOjyOIIRiCbh5m-161" vertex="1">
                    <mxGeometry width="30" height="20" as="geometry">
                        <mxRectangle width="30" height="20" as="alternateBounds"/>
                    </mxGeometry>
                </mxCell>
                <mxCell id="KscysSoOjyOIIRiCbh5m-163" value="start_date（datetime）" style="shape=partialRectangle;connectable=0;fillColor=none;top=0;left=0;bottom=0;right=0;align=left;spacingLeft=6;overflow=hidden;rounded=0;" parent="KscysSoOjyOIIRiCbh5m-161" vertex="1">
                    <mxGeometry x="30" width="230" height="20" as="geometry">
                        <mxRectangle width="230" height="20" as="alternateBounds"/>
                    </mxGeometry>
                </mxCell>
                <mxCell id="KscysSoOjyOIIRiCbh5m-164" value="" style="shape=tableRow;horizontal=0;startSize=0;swimlaneHead=0;swimlaneBody=0;fillColor=none;collapsible=0;dropTarget=0;points=[[0,0.5],[1,0.5]];portConstraint=eastwest;top=0;left=0;right=0;bottom=0;rounded=0;" parent="KscysSoOjyOIIRiCbh5m-151" vertex="1">
                    <mxGeometry y="100" width="260" height="20" as="geometry"/>
                </mxCell>
                <mxCell id="KscysSoOjyOIIRiCbh5m-165" value="" style="shape=partialRectangle;connectable=0;fillColor=none;top=0;left=0;bottom=0;right=0;editable=1;overflow=hidden;rounded=0;" parent="KscysSoOjyOIIRiCbh5m-164" vertex="1">
                    <mxGeometry width="30" height="20" as="geometry">
                        <mxRectangle width="30" height="20" as="alternateBounds"/>
                    </mxGeometry>
                </mxCell>
                <mxCell id="KscysSoOjyOIIRiCbh5m-166" value="end_date（datetime）" style="shape=partialRectangle;connectable=0;fillColor=none;top=0;left=0;bottom=0;right=0;align=left;spacingLeft=6;overflow=hidden;rounded=0;" parent="KscysSoOjyOIIRiCbh5m-164" vertex="1">
                    <mxGeometry x="30" width="230" height="20" as="geometry">
                        <mxRectangle width="230" height="20" as="alternateBounds"/>
                    </mxGeometry>
                </mxCell>
                <mxCell id="KscysSoOjyOIIRiCbh5m-167" value="" style="shape=tableRow;horizontal=0;startSize=0;swimlaneHead=0;swimlaneBody=0;fillColor=none;collapsible=0;dropTarget=0;points=[[0,0.5],[1,0.5]];portConstraint=eastwest;top=0;left=0;right=0;bottom=0;rounded=0;" parent="KscysSoOjyOIIRiCbh5m-151" vertex="1">
                    <mxGeometry y="120" width="260" height="20" as="geometry"/>
                </mxCell>
                <mxCell id="KscysSoOjyOIIRiCbh5m-168" value="" style="shape=partialRectangle;connectable=0;fillColor=none;top=0;left=0;bottom=0;right=0;editable=1;overflow=hidden;rounded=0;" parent="KscysSoOjyOIIRiCbh5m-167" vertex="1">
                    <mxGeometry width="30" height="20" as="geometry">
                        <mxRectangle width="30" height="20" as="alternateBounds"/>
                    </mxGeometry>
                </mxCell>
                <mxCell id="KscysSoOjyOIIRiCbh5m-169" value="result_announcement_date（datetime）" style="shape=partialRectangle;connectable=0;fillColor=none;top=0;left=0;bottom=0;right=0;align=left;spacingLeft=6;overflow=hidden;rounded=0;" parent="KscysSoOjyOIIRiCbh5m-167" vertex="1">
                    <mxGeometry x="30" width="230" height="20" as="geometry">
                        <mxRectangle width="230" height="20" as="alternateBounds"/>
                    </mxGeometry>
                </mxCell>
                <mxCell id="KscysSoOjyOIIRiCbh5m-170" value="" style="shape=tableRow;horizontal=0;startSize=0;swimlaneHead=0;swimlaneBody=0;fillColor=none;collapsible=0;dropTarget=0;points=[[0,0.5],[1,0.5]];portConstraint=eastwest;top=0;left=0;right=0;bottom=0;rounded=0;" parent="KscysSoOjyOIIRiCbh5m-151" vertex="1">
                    <mxGeometry y="140" width="260" height="20" as="geometry"/>
                </mxCell>
                <mxCell id="KscysSoOjyOIIRiCbh5m-171" value="" style="shape=partialRectangle;connectable=0;fillColor=none;top=0;left=0;bottom=0;right=0;editable=1;overflow=hidden;rounded=0;" parent="KscysSoOjyOIIRiCbh5m-170" vertex="1">
                    <mxGeometry width="30" height="20" as="geometry">
                        <mxRectangle width="30" height="20" as="alternateBounds"/>
                    </mxGeometry>
                </mxCell>
                <mxCell id="KscysSoOjyOIIRiCbh5m-172" value="entry_conditions（string）" style="shape=partialRectangle;connectable=0;fillColor=none;top=0;left=0;bottom=0;right=0;align=left;spacingLeft=6;overflow=hidden;rounded=0;" parent="KscysSoOjyOIIRiCbh5m-170" vertex="1">
                    <mxGeometry x="30" width="230" height="20" as="geometry">
                        <mxRectangle width="230" height="20" as="alternateBounds"/>
                    </mxGeometry>
                </mxCell>
                <mxCell id="KscysSoOjyOIIRiCbh5m-173" value="" style="shape=tableRow;horizontal=0;startSize=0;swimlaneHead=0;swimlaneBody=0;fillColor=none;collapsible=0;dropTarget=0;points=[[0,0.5],[1,0.5]];portConstraint=eastwest;top=0;left=0;right=0;bottom=0;rounded=0;" parent="KscysSoOjyOIIRiCbh5m-151" vertex="1">
                    <mxGeometry y="160" width="260" height="20" as="geometry"/>
                </mxCell>
                <mxCell id="KscysSoOjyOIIRiCbh5m-174" value="FK" style="shape=partialRectangle;connectable=0;fillColor=none;top=0;left=0;bottom=0;right=0;editable=1;overflow=hidden;rounded=0;" parent="KscysSoOjyOIIRiCbh5m-173" vertex="1">
                    <mxGeometry width="30" height="20" as="geometry">
                        <mxRectangle width="30" height="20" as="alternateBounds"/>
                    </mxGeometry>
                </mxCell>
                <mxCell id="KscysSoOjyOIIRiCbh5m-175" value="user_id（integer）" style="shape=partialRectangle;connectable=0;fillColor=none;top=0;left=0;bottom=0;right=0;align=left;spacingLeft=6;overflow=hidden;rounded=0;" parent="KscysSoOjyOIIRiCbh5m-173" vertex="1">
                    <mxGeometry x="30" width="230" height="20" as="geometry">
                        <mxRectangle width="230" height="20" as="alternateBounds"/>
                    </mxGeometry>
                </mxCell>
                <mxCell id="KscysSoOjyOIIRiCbh5m-176" value="" style="shape=tableRow;horizontal=0;startSize=0;swimlaneHead=0;swimlaneBody=0;fillColor=none;collapsible=0;dropTarget=0;points=[[0,0.5],[1,0.5]];portConstraint=eastwest;top=0;left=0;right=0;bottom=0;rounded=0;" parent="KscysSoOjyOIIRiCbh5m-151" vertex="1">
                    <mxGeometry y="180" width="260" height="20" as="geometry"/>
                </mxCell>
                <mxCell id="KscysSoOjyOIIRiCbh5m-177" value="" style="shape=partialRectangle;connectable=0;fillColor=none;top=0;left=0;bottom=0;right=0;editable=1;overflow=hidden;rounded=0;" parent="KscysSoOjyOIIRiCbh5m-176" vertex="1">
                    <mxGeometry width="30" height="20" as="geometry">
                        <mxRectangle width="30" height="20" as="alternateBounds"/>
                    </mxGeometry>
                </mxCell>
                <mxCell id="KscysSoOjyOIIRiCbh5m-178" value="created_at（datetime）" style="shape=partialRectangle;connectable=0;fillColor=none;top=0;left=0;bottom=0;right=0;align=left;spacingLeft=6;overflow=hidden;rounded=0;" parent="KscysSoOjyOIIRiCbh5m-176" vertex="1">
                    <mxGeometry x="30" width="230" height="20" as="geometry">
                        <mxRectangle width="230" height="20" as="alternateBounds"/>
                    </mxGeometry>
                </mxCell>
                <mxCell id="KscysSoOjyOIIRiCbh5m-179" value="" style="shape=tableRow;horizontal=0;startSize=0;swimlaneHead=0;swimlaneBody=0;fillColor=none;collapsible=0;dropTarget=0;points=[[0,0.5],[1,0.5]];portConstraint=eastwest;top=0;left=0;right=0;bottom=0;rounded=0;" parent="KscysSoOjyOIIRiCbh5m-151" vertex="1">
                    <mxGeometry y="200" width="260" height="20" as="geometry"/>
                </mxCell>
                <mxCell id="KscysSoOjyOIIRiCbh5m-180" value="" style="shape=partialRectangle;connectable=0;fillColor=none;top=0;left=0;bottom=0;right=0;editable=1;overflow=hidden;rounded=0;" parent="KscysSoOjyOIIRiCbh5m-179" vertex="1">
                    <mxGeometry width="30" height="20" as="geometry">
                        <mxRectangle width="30" height="20" as="alternateBounds"/>
                    </mxGeometry>
                </mxCell>
                <mxCell id="KscysSoOjyOIIRiCbh5m-181" value="updated_at（datetime）" style="shape=partialRectangle;connectable=0;fillColor=none;top=0;left=0;bottom=0;right=0;align=left;spacingLeft=6;overflow=hidden;rounded=0;" parent="KscysSoOjyOIIRiCbh5m-179" vertex="1">
                    <mxGeometry x="30" width="230" height="20" as="geometry">
                        <mxRectangle width="230" height="20" as="alternateBounds"/>
                    </mxGeometry>
                </mxCell>
                <mxCell id="KscysSoOjyOIIRiCbh5m-182" value="contest_entries" style="shape=table;startSize=20;container=1;collapsible=1;childLayout=tableLayout;fixedRows=1;rowLines=0;fontStyle=1;align=center;resizeLast=1;rounded=0;" parent="1" vertex="1">
                    <mxGeometry x="160" y="720" width="200" height="140" as="geometry"/>
                </mxCell>
                <mxCell id="KscysSoOjyOIIRiCbh5m-183" value="" style="shape=tableRow;horizontal=0;startSize=0;swimlaneHead=0;swimlaneBody=0;fillColor=none;collapsible=0;dropTarget=0;points=[[0,0.5],[1,0.5]];portConstraint=eastwest;top=0;left=0;right=0;bottom=1;rounded=0;" parent="KscysSoOjyOIIRiCbh5m-182" vertex="1">
                    <mxGeometry y="20" width="200" height="20" as="geometry"/>
                </mxCell>
                <mxCell id="KscysSoOjyOIIRiCbh5m-184" value="PK" style="shape=partialRectangle;connectable=0;fillColor=none;top=0;left=0;bottom=0;right=0;fontStyle=1;overflow=hidden;rounded=0;" parent="KscysSoOjyOIIRiCbh5m-183" vertex="1">
                    <mxGeometry width="30" height="20" as="geometry">
                        <mxRectangle width="30" height="20" as="alternateBounds"/>
                    </mxGeometry>
                </mxCell>
                <mxCell id="KscysSoOjyOIIRiCbh5m-185" value="ID" style="shape=partialRectangle;connectable=0;fillColor=none;top=0;left=0;bottom=0;right=0;align=left;spacingLeft=6;fontStyle=5;overflow=hidden;rounded=0;" parent="KscysSoOjyOIIRiCbh5m-183" vertex="1">
                    <mxGeometry x="30" width="170" height="20" as="geometry">
                        <mxRectangle width="170" height="20" as="alternateBounds"/>
                    </mxGeometry>
                </mxCell>
                <mxCell id="KscysSoOjyOIIRiCbh5m-186" value="" style="shape=tableRow;horizontal=0;startSize=0;swimlaneHead=0;swimlaneBody=0;fillColor=none;collapsible=0;dropTarget=0;points=[[0,0.5],[1,0.5]];portConstraint=eastwest;top=0;left=0;right=0;bottom=0;rounded=0;" parent="KscysSoOjyOIIRiCbh5m-182" vertex="1">
                    <mxGeometry y="40" width="200" height="20" as="geometry"/>
                </mxCell>
                <mxCell id="KscysSoOjyOIIRiCbh5m-187" value="FK" style="shape=partialRectangle;connectable=0;fillColor=none;top=0;left=0;bottom=0;right=0;editable=1;overflow=hidden;rounded=0;" parent="KscysSoOjyOIIRiCbh5m-186" vertex="1">
                    <mxGeometry width="30" height="20" as="geometry">
                        <mxRectangle width="30" height="20" as="alternateBounds"/>
                    </mxGeometry>
                </mxCell>
                <mxCell id="KscysSoOjyOIIRiCbh5m-188" value="user_id（integer）" style="shape=partialRectangle;connectable=0;fillColor=none;top=0;left=0;bottom=0;right=0;align=left;spacingLeft=6;overflow=hidden;rounded=0;" parent="KscysSoOjyOIIRiCbh5m-186" vertex="1">
                    <mxGeometry x="30" width="170" height="20" as="geometry">
                        <mxRectangle width="170" height="20" as="alternateBounds"/>
                    </mxGeometry>
                </mxCell>
                <mxCell id="KscysSoOjyOIIRiCbh5m-189" value="" style="shape=tableRow;horizontal=0;startSize=0;swimlaneHead=0;swimlaneBody=0;fillColor=none;collapsible=0;dropTarget=0;points=[[0,0.5],[1,0.5]];portConstraint=eastwest;top=0;left=0;right=0;bottom=0;rounded=0;" parent="KscysSoOjyOIIRiCbh5m-182" vertex="1">
                    <mxGeometry y="60" width="200" height="20" as="geometry"/>
                </mxCell>
                <mxCell id="KscysSoOjyOIIRiCbh5m-190" value="FK" style="shape=partialRectangle;connectable=0;fillColor=none;top=0;left=0;bottom=0;right=0;editable=1;overflow=hidden;rounded=0;" parent="KscysSoOjyOIIRiCbh5m-189" vertex="1">
                    <mxGeometry width="30" height="20" as="geometry">
                        <mxRectangle width="30" height="20" as="alternateBounds"/>
                    </mxGeometry>
                </mxCell>
                <mxCell id="KscysSoOjyOIIRiCbh5m-191" value="photo_id（integer）" style="shape=partialRectangle;connectable=0;fillColor=none;top=0;left=0;bottom=0;right=0;align=left;spacingLeft=6;overflow=hidden;rounded=0;" parent="KscysSoOjyOIIRiCbh5m-189" vertex="1">
                    <mxGeometry x="30" width="170" height="20" as="geometry">
                        <mxRectangle width="170" height="20" as="alternateBounds"/>
                    </mxGeometry>
                </mxCell>
                <mxCell id="KscysSoOjyOIIRiCbh5m-192" value="" style="shape=tableRow;horizontal=0;startSize=0;swimlaneHead=0;swimlaneBody=0;fillColor=none;collapsible=0;dropTarget=0;points=[[0,0.5],[1,0.5]];portConstraint=eastwest;top=0;left=0;right=0;bottom=0;rounded=0;" parent="KscysSoOjyOIIRiCbh5m-182" vertex="1">
                    <mxGeometry y="80" width="200" height="20" as="geometry"/>
                </mxCell>
                <mxCell id="KscysSoOjyOIIRiCbh5m-193" value="FK" style="shape=partialRectangle;connectable=0;fillColor=none;top=0;left=0;bottom=0;right=0;editable=1;overflow=hidden;rounded=0;" parent="KscysSoOjyOIIRiCbh5m-192" vertex="1">
                    <mxGeometry width="30" height="20" as="geometry">
                        <mxRectangle width="30" height="20" as="alternateBounds"/>
                    </mxGeometry>
                </mxCell>
                <mxCell id="KscysSoOjyOIIRiCbh5m-194" value="contest_id（integer）" style="shape=partialRectangle;connectable=0;fillColor=none;top=0;left=0;bottom=0;right=0;align=left;spacingLeft=6;overflow=hidden;rounded=0;" parent="KscysSoOjyOIIRiCbh5m-192" vertex="1">
                    <mxGeometry x="30" width="170" height="20" as="geometry">
                        <mxRectangle width="170" height="20" as="alternateBounds"/>
                    </mxGeometry>
                </mxCell>
                <mxCell id="KscysSoOjyOIIRiCbh5m-195" value="" style="shape=tableRow;horizontal=0;startSize=0;swimlaneHead=0;swimlaneBody=0;fillColor=none;collapsible=0;dropTarget=0;points=[[0,0.5],[1,0.5]];portConstraint=eastwest;top=0;left=0;right=0;bottom=0;rounded=0;" parent="KscysSoOjyOIIRiCbh5m-182" vertex="1">
                    <mxGeometry y="100" width="200" height="20" as="geometry"/>
                </mxCell>
                <mxCell id="KscysSoOjyOIIRiCbh5m-196" value="" style="shape=partialRectangle;connectable=0;fillColor=none;top=0;left=0;bottom=0;right=0;editable=1;overflow=hidden;rounded=0;" parent="KscysSoOjyOIIRiCbh5m-195" vertex="1">
                    <mxGeometry width="30" height="20" as="geometry">
                        <mxRectangle width="30" height="20" as="alternateBounds"/>
                    </mxGeometry>
                </mxCell>
                <mxCell id="KscysSoOjyOIIRiCbh5m-197" value="created_at（datetime）" style="shape=partialRectangle;connectable=0;fillColor=none;top=0;left=0;bottom=0;right=0;align=left;spacingLeft=6;overflow=hidden;rounded=0;" parent="KscysSoOjyOIIRiCbh5m-195" vertex="1">
                    <mxGeometry x="30" width="170" height="20" as="geometry">
                        <mxRectangle width="170" height="20" as="alternateBounds"/>
                    </mxGeometry>
                </mxCell>
                <mxCell id="KscysSoOjyOIIRiCbh5m-198" value="" style="shape=tableRow;horizontal=0;startSize=0;swimlaneHead=0;swimlaneBody=0;fillColor=none;collapsible=0;dropTarget=0;points=[[0,0.5],[1,0.5]];portConstraint=eastwest;top=0;left=0;right=0;bottom=0;rounded=0;" parent="KscysSoOjyOIIRiCbh5m-182" vertex="1">
                    <mxGeometry y="120" width="200" height="20" as="geometry"/>
                </mxCell>
                <mxCell id="KscysSoOjyOIIRiCbh5m-199" value="" style="shape=partialRectangle;connectable=0;fillColor=none;top=0;left=0;bottom=0;right=0;editable=1;overflow=hidden;rounded=0;" parent="KscysSoOjyOIIRiCbh5m-198" vertex="1">
                    <mxGeometry width="30" height="20" as="geometry">
                        <mxRectangle width="30" height="20" as="alternateBounds"/>
                    </mxGeometry>
                </mxCell>
                <mxCell id="KscysSoOjyOIIRiCbh5m-200" value="updated_at（datetime）" style="shape=partialRectangle;connectable=0;fillColor=none;top=0;left=0;bottom=0;right=0;align=left;spacingLeft=6;overflow=hidden;rounded=0;" parent="KscysSoOjyOIIRiCbh5m-198" vertex="1">
                    <mxGeometry x="30" width="170" height="20" as="geometry">
                        <mxRectangle width="170" height="20" as="alternateBounds"/>
                    </mxGeometry>
                </mxCell>
                <mxCell id="KscysSoOjyOIIRiCbh5m-201" value="contest_votings" style="shape=table;startSize=20;container=1;collapsible=1;childLayout=tableLayout;fixedRows=1;rowLines=0;fontStyle=1;align=center;resizeLast=1;rounded=0;" parent="1" vertex="1">
                    <mxGeometry x="160" y="480" width="200" height="180" as="geometry"/>
                </mxCell>
                <mxCell id="KscysSoOjyOIIRiCbh5m-202" value="" style="shape=tableRow;horizontal=0;startSize=0;swimlaneHead=0;swimlaneBody=0;fillColor=none;collapsible=0;dropTarget=0;points=[[0,0.5],[1,0.5]];portConstraint=eastwest;top=0;left=0;right=0;bottom=1;rounded=0;" parent="KscysSoOjyOIIRiCbh5m-201" vertex="1">
                    <mxGeometry y="20" width="200" height="20" as="geometry"/>
                </mxCell>
                <mxCell id="KscysSoOjyOIIRiCbh5m-203" value="PK" style="shape=partialRectangle;connectable=0;fillColor=none;top=0;left=0;bottom=0;right=0;fontStyle=1;overflow=hidden;rounded=0;" parent="KscysSoOjyOIIRiCbh5m-202" vertex="1">
                    <mxGeometry width="30" height="20" as="geometry">
                        <mxRectangle width="30" height="20" as="alternateBounds"/>
                    </mxGeometry>
                </mxCell>
                <mxCell id="KscysSoOjyOIIRiCbh5m-204" value="ID" style="shape=partialRectangle;connectable=0;fillColor=none;top=0;left=0;bottom=0;right=0;align=left;spacingLeft=6;fontStyle=5;overflow=hidden;rounded=0;" parent="KscysSoOjyOIIRiCbh5m-202" vertex="1">
                    <mxGeometry x="30" width="170" height="20" as="geometry">
                        <mxRectangle width="170" height="20" as="alternateBounds"/>
                    </mxGeometry>
                </mxCell>
                <mxCell id="KscysSoOjyOIIRiCbh5m-205" value="" style="shape=tableRow;horizontal=0;startSize=0;swimlaneHead=0;swimlaneBody=0;fillColor=none;collapsible=0;dropTarget=0;points=[[0,0.5],[1,0.5]];portConstraint=eastwest;top=0;left=0;right=0;bottom=0;rounded=0;" parent="KscysSoOjyOIIRiCbh5m-201" vertex="1">
                    <mxGeometry y="40" width="200" height="20" as="geometry"/>
                </mxCell>
                <mxCell id="KscysSoOjyOIIRiCbh5m-206" value="" style="shape=partialRectangle;connectable=0;fillColor=none;top=0;left=0;bottom=0;right=0;editable=1;overflow=hidden;rounded=0;" parent="KscysSoOjyOIIRiCbh5m-205" vertex="1">
                    <mxGeometry width="30" height="20" as="geometry">
                        <mxRectangle width="30" height="20" as="alternateBounds"/>
                    </mxGeometry>
                </mxCell>
                <mxCell id="KscysSoOjyOIIRiCbh5m-207" value="rating（integer）" style="shape=partialRectangle;connectable=0;fillColor=none;top=0;left=0;bottom=0;right=0;align=left;spacingLeft=6;overflow=hidden;rounded=0;" parent="KscysSoOjyOIIRiCbh5m-205" vertex="1">
                    <mxGeometry x="30" width="170" height="20" as="geometry">
                        <mxRectangle width="170" height="20" as="alternateBounds"/>
                    </mxGeometry>
                </mxCell>
                <mxCell id="KscysSoOjyOIIRiCbh5m-208" value="" style="shape=tableRow;horizontal=0;startSize=0;swimlaneHead=0;swimlaneBody=0;fillColor=none;collapsible=0;dropTarget=0;points=[[0,0.5],[1,0.5]];portConstraint=eastwest;top=0;left=0;right=0;bottom=0;rounded=0;" parent="KscysSoOjyOIIRiCbh5m-201" vertex="1">
                    <mxGeometry y="60" width="200" height="20" as="geometry"/>
                </mxCell>
                <mxCell id="KscysSoOjyOIIRiCbh5m-209" value="" style="shape=partialRectangle;connectable=0;fillColor=none;top=0;left=0;bottom=0;right=0;editable=1;overflow=hidden;rounded=0;" parent="KscysSoOjyOIIRiCbh5m-208" vertex="1">
                    <mxGeometry width="30" height="20" as="geometry">
                        <mxRectangle width="30" height="20" as="alternateBounds"/>
                    </mxGeometry>
                </mxCell>
                <mxCell id="KscysSoOjyOIIRiCbh5m-210" value="comment（text）" style="shape=partialRectangle;connectable=0;fillColor=none;top=0;left=0;bottom=0;right=0;align=left;spacingLeft=6;overflow=hidden;rounded=0;" parent="KscysSoOjyOIIRiCbh5m-208" vertex="1">
                    <mxGeometry x="30" width="170" height="20" as="geometry">
                        <mxRectangle width="170" height="20" as="alternateBounds"/>
                    </mxGeometry>
                </mxCell>
                <mxCell id="KscysSoOjyOIIRiCbh5m-211" value="" style="shape=tableRow;horizontal=0;startSize=0;swimlaneHead=0;swimlaneBody=0;fillColor=none;collapsible=0;dropTarget=0;points=[[0,0.5],[1,0.5]];portConstraint=eastwest;top=0;left=0;right=0;bottom=0;rounded=0;" parent="KscysSoOjyOIIRiCbh5m-201" vertex="1">
                    <mxGeometry y="80" width="200" height="20" as="geometry"/>
                </mxCell>
                <mxCell id="KscysSoOjyOIIRiCbh5m-212" value="FK" style="shape=partialRectangle;connectable=0;fillColor=none;top=0;left=0;bottom=0;right=0;editable=1;overflow=hidden;rounded=0;" parent="KscysSoOjyOIIRiCbh5m-211" vertex="1">
                    <mxGeometry width="30" height="20" as="geometry">
                        <mxRectangle width="30" height="20" as="alternateBounds"/>
                    </mxGeometry>
                </mxCell>
                <mxCell id="KscysSoOjyOIIRiCbh5m-213" value="user_id（integer）" style="shape=partialRectangle;connectable=0;fillColor=none;top=0;left=0;bottom=0;right=0;align=left;spacingLeft=6;overflow=hidden;rounded=0;" parent="KscysSoOjyOIIRiCbh5m-211" vertex="1">
                    <mxGeometry x="30" width="170" height="20" as="geometry">
                        <mxRectangle width="170" height="20" as="alternateBounds"/>
                    </mxGeometry>
                </mxCell>
                <mxCell id="KscysSoOjyOIIRiCbh5m-214" value="" style="shape=tableRow;horizontal=0;startSize=0;swimlaneHead=0;swimlaneBody=0;fillColor=none;collapsible=0;dropTarget=0;points=[[0,0.5],[1,0.5]];portConstraint=eastwest;top=0;left=0;right=0;bottom=0;rounded=0;" parent="KscysSoOjyOIIRiCbh5m-201" vertex="1">
                    <mxGeometry y="100" width="200" height="20" as="geometry"/>
                </mxCell>
                <mxCell id="KscysSoOjyOIIRiCbh5m-215" value="FK" style="shape=partialRectangle;connectable=0;fillColor=none;top=0;left=0;bottom=0;right=0;editable=1;overflow=hidden;rounded=0;" parent="KscysSoOjyOIIRiCbh5m-214" vertex="1">
                    <mxGeometry width="30" height="20" as="geometry">
                        <mxRectangle width="30" height="20" as="alternateBounds"/>
                    </mxGeometry>
                </mxCell>
                <mxCell id="KscysSoOjyOIIRiCbh5m-216" value="photo_id（integer）" style="shape=partialRectangle;connectable=0;fillColor=none;top=0;left=0;bottom=0;right=0;align=left;spacingLeft=6;overflow=hidden;rounded=0;" parent="KscysSoOjyOIIRiCbh5m-214" vertex="1">
                    <mxGeometry x="30" width="170" height="20" as="geometry">
                        <mxRectangle width="170" height="20" as="alternateBounds"/>
                    </mxGeometry>
                </mxCell>
                <mxCell id="KscysSoOjyOIIRiCbh5m-217" value="" style="shape=tableRow;horizontal=0;startSize=0;swimlaneHead=0;swimlaneBody=0;fillColor=none;collapsible=0;dropTarget=0;points=[[0,0.5],[1,0.5]];portConstraint=eastwest;top=0;left=0;right=0;bottom=0;rounded=0;" parent="KscysSoOjyOIIRiCbh5m-201" vertex="1">
                    <mxGeometry y="120" width="200" height="20" as="geometry"/>
                </mxCell>
                <mxCell id="KscysSoOjyOIIRiCbh5m-218" value="FK" style="shape=partialRectangle;connectable=0;fillColor=none;top=0;left=0;bottom=0;right=0;editable=1;overflow=hidden;rounded=0;" parent="KscysSoOjyOIIRiCbh5m-217" vertex="1">
                    <mxGeometry width="30" height="20" as="geometry">
                        <mxRectangle width="30" height="20" as="alternateBounds"/>
                    </mxGeometry>
                </mxCell>
                <mxCell id="KscysSoOjyOIIRiCbh5m-219" value="contest_id（integer）" style="shape=partialRectangle;connectable=0;fillColor=none;top=0;left=0;bottom=0;right=0;align=left;spacingLeft=6;overflow=hidden;rounded=0;" parent="KscysSoOjyOIIRiCbh5m-217" vertex="1">
                    <mxGeometry x="30" width="170" height="20" as="geometry">
                        <mxRectangle width="170" height="20" as="alternateBounds"/>
                    </mxGeometry>
                </mxCell>
                <mxCell id="KscysSoOjyOIIRiCbh5m-220" value="" style="shape=tableRow;horizontal=0;startSize=0;swimlaneHead=0;swimlaneBody=0;fillColor=none;collapsible=0;dropTarget=0;points=[[0,0.5],[1,0.5]];portConstraint=eastwest;top=0;left=0;right=0;bottom=0;rounded=0;" parent="KscysSoOjyOIIRiCbh5m-201" vertex="1">
                    <mxGeometry y="140" width="200" height="20" as="geometry"/>
                </mxCell>
                <mxCell id="KscysSoOjyOIIRiCbh5m-221" value="" style="shape=partialRectangle;connectable=0;fillColor=none;top=0;left=0;bottom=0;right=0;editable=1;overflow=hidden;rounded=0;" parent="KscysSoOjyOIIRiCbh5m-220" vertex="1">
                    <mxGeometry width="30" height="20" as="geometry">
                        <mxRectangle width="30" height="20" as="alternateBounds"/>
                    </mxGeometry>
                </mxCell>
                <mxCell id="KscysSoOjyOIIRiCbh5m-222" value="created_at（datetime）" style="shape=partialRectangle;connectable=0;fillColor=none;top=0;left=0;bottom=0;right=0;align=left;spacingLeft=6;overflow=hidden;rounded=0;" parent="KscysSoOjyOIIRiCbh5m-220" vertex="1">
                    <mxGeometry x="30" width="170" height="20" as="geometry">
                        <mxRectangle width="170" height="20" as="alternateBounds"/>
                    </mxGeometry>
                </mxCell>
                <mxCell id="KscysSoOjyOIIRiCbh5m-223" value="" style="shape=tableRow;horizontal=0;startSize=0;swimlaneHead=0;swimlaneBody=0;fillColor=none;collapsible=0;dropTarget=0;points=[[0,0.5],[1,0.5]];portConstraint=eastwest;top=0;left=0;right=0;bottom=0;rounded=0;" parent="KscysSoOjyOIIRiCbh5m-201" vertex="1">
                    <mxGeometry y="160" width="200" height="20" as="geometry"/>
                </mxCell>
                <mxCell id="KscysSoOjyOIIRiCbh5m-224" value="" style="shape=partialRectangle;connectable=0;fillColor=none;top=0;left=0;bottom=0;right=0;editable=1;overflow=hidden;rounded=0;" parent="KscysSoOjyOIIRiCbh5m-223" vertex="1">
                    <mxGeometry width="30" height="20" as="geometry">
                        <mxRectangle width="30" height="20" as="alternateBounds"/>
                    </mxGeometry>
                </mxCell>
                <mxCell id="KscysSoOjyOIIRiCbh5m-225" value="updated_at（datetime）" style="shape=partialRectangle;connectable=0;fillColor=none;top=0;left=0;bottom=0;right=0;align=left;spacingLeft=6;overflow=hidden;rounded=0;" parent="KscysSoOjyOIIRiCbh5m-223" vertex="1">
                    <mxGeometry x="30" width="170" height="20" as="geometry">
                        <mxRectangle width="170" height="20" as="alternateBounds"/>
                    </mxGeometry>
                </mxCell>
                <mxCell id="KscysSoOjyOIIRiCbh5m-226" value="photo_scenes" style="shape=table;startSize=20;container=1;collapsible=1;childLayout=tableLayout;fixedRows=1;rowLines=0;fontStyle=1;align=center;resizeLast=1;rounded=0;" parent="1" vertex="1">
                    <mxGeometry x="720" width="180" height="120" as="geometry"/>
                </mxCell>
                <mxCell id="KscysSoOjyOIIRiCbh5m-227" value="" style="shape=tableRow;horizontal=0;startSize=0;swimlaneHead=0;swimlaneBody=0;fillColor=none;collapsible=0;dropTarget=0;points=[[0,0.5],[1,0.5]];portConstraint=eastwest;top=0;left=0;right=0;bottom=1;rounded=0;" parent="KscysSoOjyOIIRiCbh5m-226" vertex="1">
                    <mxGeometry y="20" width="180" height="20" as="geometry"/>
                </mxCell>
                <mxCell id="KscysSoOjyOIIRiCbh5m-228" value="PK" style="shape=partialRectangle;connectable=0;fillColor=none;top=0;left=0;bottom=0;right=0;fontStyle=1;overflow=hidden;rounded=0;" parent="KscysSoOjyOIIRiCbh5m-227" vertex="1">
                    <mxGeometry width="30" height="20" as="geometry">
                        <mxRectangle width="30" height="20" as="alternateBounds"/>
                    </mxGeometry>
                </mxCell>
                <mxCell id="KscysSoOjyOIIRiCbh5m-229" value="ID" style="shape=partialRectangle;connectable=0;fillColor=none;top=0;left=0;bottom=0;right=0;align=left;spacingLeft=6;fontStyle=5;overflow=hidden;rounded=0;" parent="KscysSoOjyOIIRiCbh5m-227" vertex="1">
                    <mxGeometry x="30" width="150" height="20" as="geometry">
                        <mxRectangle width="150" height="20" as="alternateBounds"/>
                    </mxGeometry>
                </mxCell>
                <mxCell id="KscysSoOjyOIIRiCbh5m-230" value="" style="shape=tableRow;horizontal=0;startSize=0;swimlaneHead=0;swimlaneBody=0;fillColor=none;collapsible=0;dropTarget=0;points=[[0,0.5],[1,0.5]];portConstraint=eastwest;top=0;left=0;right=0;bottom=0;rounded=0;" parent="KscysSoOjyOIIRiCbh5m-226" vertex="1">
                    <mxGeometry y="40" width="180" height="20" as="geometry"/>
                </mxCell>
                <mxCell id="KscysSoOjyOIIRiCbh5m-231" value="FK" style="shape=partialRectangle;connectable=0;fillColor=none;top=0;left=0;bottom=0;right=0;editable=1;overflow=hidden;rounded=0;" parent="KscysSoOjyOIIRiCbh5m-230" vertex="1">
                    <mxGeometry width="30" height="20" as="geometry">
                        <mxRectangle width="30" height="20" as="alternateBounds"/>
                    </mxGeometry>
                </mxCell>
                <mxCell id="KscysSoOjyOIIRiCbh5m-232" value="photo_id（integer）" style="shape=partialRectangle;connectable=0;fillColor=none;top=0;left=0;bottom=0;right=0;align=left;spacingLeft=6;overflow=hidden;rounded=0;" parent="KscysSoOjyOIIRiCbh5m-230" vertex="1">
                    <mxGeometry x="30" width="150" height="20" as="geometry">
                        <mxRectangle width="150" height="20" as="alternateBounds"/>
                    </mxGeometry>
                </mxCell>
                <mxCell id="KscysSoOjyOIIRiCbh5m-233" value="" style="shape=tableRow;horizontal=0;startSize=0;swimlaneHead=0;swimlaneBody=0;fillColor=none;collapsible=0;dropTarget=0;points=[[0,0.5],[1,0.5]];portConstraint=eastwest;top=0;left=0;right=0;bottom=0;rounded=0;" parent="KscysSoOjyOIIRiCbh5m-226" vertex="1">
                    <mxGeometry y="60" width="180" height="20" as="geometry"/>
                </mxCell>
                <mxCell id="KscysSoOjyOIIRiCbh5m-234" value="FK" style="shape=partialRectangle;connectable=0;fillColor=none;top=0;left=0;bottom=0;right=0;editable=1;overflow=hidden;rounded=0;" parent="KscysSoOjyOIIRiCbh5m-233" vertex="1">
                    <mxGeometry width="30" height="20" as="geometry">
                        <mxRectangle width="30" height="20" as="alternateBounds"/>
                    </mxGeometry>
                </mxCell>
                <mxCell id="KscysSoOjyOIIRiCbh5m-235" value="scene_id（integer）" style="shape=partialRectangle;connectable=0;fillColor=none;top=0;left=0;bottom=0;right=0;align=left;spacingLeft=6;overflow=hidden;rounded=0;" parent="KscysSoOjyOIIRiCbh5m-233" vertex="1">
                    <mxGeometry x="30" width="150" height="20" as="geometry">
                        <mxRectangle width="150" height="20" as="alternateBounds"/>
                    </mxGeometry>
                </mxCell>
                <mxCell id="KscysSoOjyOIIRiCbh5m-236" value="" style="shape=tableRow;horizontal=0;startSize=0;swimlaneHead=0;swimlaneBody=0;fillColor=none;collapsible=0;dropTarget=0;points=[[0,0.5],[1,0.5]];portConstraint=eastwest;top=0;left=0;right=0;bottom=0;rounded=0;" parent="KscysSoOjyOIIRiCbh5m-226" vertex="1">
                    <mxGeometry y="80" width="180" height="20" as="geometry"/>
                </mxCell>
                <mxCell id="KscysSoOjyOIIRiCbh5m-237" value="" style="shape=partialRectangle;connectable=0;fillColor=none;top=0;left=0;bottom=0;right=0;editable=1;overflow=hidden;rounded=0;" parent="KscysSoOjyOIIRiCbh5m-236" vertex="1">
                    <mxGeometry width="30" height="20" as="geometry">
                        <mxRectangle width="30" height="20" as="alternateBounds"/>
                    </mxGeometry>
                </mxCell>
                <mxCell id="KscysSoOjyOIIRiCbh5m-238" value="created_at（datetime）" style="shape=partialRectangle;connectable=0;fillColor=none;top=0;left=0;bottom=0;right=0;align=left;spacingLeft=6;overflow=hidden;rounded=0;" parent="KscysSoOjyOIIRiCbh5m-236" vertex="1">
                    <mxGeometry x="30" width="150" height="20" as="geometry">
                        <mxRectangle width="150" height="20" as="alternateBounds"/>
                    </mxGeometry>
                </mxCell>
                <mxCell id="KscysSoOjyOIIRiCbh5m-239" value="" style="shape=tableRow;horizontal=0;startSize=0;swimlaneHead=0;swimlaneBody=0;fillColor=none;collapsible=0;dropTarget=0;points=[[0,0.5],[1,0.5]];portConstraint=eastwest;top=0;left=0;right=0;bottom=0;rounded=0;" parent="KscysSoOjyOIIRiCbh5m-226" vertex="1">
                    <mxGeometry y="100" width="180" height="20" as="geometry"/>
                </mxCell>
                <mxCell id="KscysSoOjyOIIRiCbh5m-240" value="" style="shape=partialRectangle;connectable=0;fillColor=none;top=0;left=0;bottom=0;right=0;editable=1;overflow=hidden;rounded=0;" parent="KscysSoOjyOIIRiCbh5m-239" vertex="1">
                    <mxGeometry width="30" height="20" as="geometry">
                        <mxRectangle width="30" height="20" as="alternateBounds"/>
                    </mxGeometry>
                </mxCell>
                <mxCell id="KscysSoOjyOIIRiCbh5m-241" value="updated_at（datetime）" style="shape=partialRectangle;connectable=0;fillColor=none;top=0;left=0;bottom=0;right=0;align=left;spacingLeft=6;overflow=hidden;rounded=0;" parent="KscysSoOjyOIIRiCbh5m-239" vertex="1">
                    <mxGeometry x="30" width="150" height="20" as="geometry">
                        <mxRectangle width="150" height="20" as="alternateBounds"/>
                    </mxGeometry>
                </mxCell>
                <mxCell id="KscysSoOjyOIIRiCbh5m-242" value="" style="fontSize=12;html=1;endArrow=ERoneToMany;startArrow=ERmandOne;exitX=1;exitY=0.5;exitDx=0;exitDy=0;entryX=0;entryY=0.5;entryDx=0;entryDy=0;rounded=0;edgeStyle=orthogonalEdgeStyle;" parent="1" source="KscysSoOjyOIIRiCbh5m-2" target="KscysSoOjyOIIRiCbh5m-139" edge="1">
                    <mxGeometry width="100" height="100" relative="1" as="geometry">
                        <mxPoint x="225" y="550" as="sourcePoint"/>
                        <mxPoint x="325" y="450" as="targetPoint"/>
                        <Array as="points">
                            <mxPoint x="480" y="410"/>
                            <mxPoint x="480" y="610"/>
                        </Array>
                    </mxGeometry>
                </mxCell>
                <mxCell id="KscysSoOjyOIIRiCbh5m-243" value="" style="fontSize=12;html=1;endArrow=ERoneToMany;startArrow=ERmandOne;exitX=0;exitY=0.5;exitDx=0;exitDy=0;entryX=1;entryY=0.5;entryDx=0;entryDy=0;rounded=0;" parent="1" source="KscysSoOjyOIIRiCbh5m-2" target="KscysSoOjyOIIRiCbh5m-30" edge="1">
                    <mxGeometry width="100" height="100" relative="1" as="geometry">
                        <mxPoint x="165" y="195" as="sourcePoint"/>
                        <mxPoint x="285" y="335" as="targetPoint"/>
                    </mxGeometry>
                </mxCell>
                <mxCell id="KscysSoOjyOIIRiCbh5m-244" value="" style="fontSize=12;html=1;endArrow=ERoneToMany;startArrow=ERmandOne;exitX=0;exitY=0.5;exitDx=0;exitDy=0;rounded=0;entryX=0;entryY=0.5;entryDx=0;entryDy=0;edgeStyle=orthogonalEdgeStyle;sourcePerimeterSpacing=3;startSize=5;jumpStyle=none;orthogonal=0;" parent="1" source="KscysSoOjyOIIRiCbh5m-88" target="KscysSoOjyOIIRiCbh5m-33" edge="1">
                    <mxGeometry width="100" height="100" relative="1" as="geometry">
                        <mxPoint x="550" y="180" as="sourcePoint"/>
                        <mxPoint x="535" y="130" as="targetPoint"/>
                        <Array as="points">
                            <mxPoint x="320" y="270"/>
                            <mxPoint x="320" y="-20"/>
                            <mxPoint x="-640" y="-20"/>
                            <mxPoint x="-640" y="390"/>
                        </Array>
                    </mxGeometry>
                </mxCell>
                <mxCell id="KscysSoOjyOIIRiCbh5m-245" value="" style="fontSize=12;html=1;endArrow=ERoneToMany;startArrow=ERmandOne;exitX=1;exitY=0.5;exitDx=0;exitDy=0;entryX=0;entryY=0.5;entryDx=0;entryDy=0;rounded=0;edgeStyle=isometricEdgeStyle;" parent="1" source="KscysSoOjyOIIRiCbh5m-2" target="KscysSoOjyOIIRiCbh5m-62" edge="1">
                    <mxGeometry width="100" height="100" relative="1" as="geometry">
                        <mxPoint x="185" y="765" as="sourcePoint"/>
                        <mxPoint x="305" y="905" as="targetPoint"/>
                    </mxGeometry>
                </mxCell>
                <mxCell id="KscysSoOjyOIIRiCbh5m-246" value="" style="fontSize=12;html=1;endArrow=ERoneToMany;startArrow=ERmandOne;entryX=1;entryY=0.5;entryDx=0;entryDy=0;exitX=0;exitY=0.5;exitDx=0;exitDy=0;rounded=0;edgeStyle=isometricEdgeStyle;elbow=vertical;" parent="1" source="KscysSoOjyOIIRiCbh5m-88" target="KscysSoOjyOIIRiCbh5m-65" edge="1">
                    <mxGeometry width="100" height="100" relative="1" as="geometry">
                        <mxPoint x="520" y="290" as="sourcePoint"/>
                        <mxPoint x="690" y="1045.0000000000005" as="targetPoint"/>
                        <Array as="points">
                            <mxPoint x="280" y="140"/>
                        </Array>
                    </mxGeometry>
                </mxCell>
                <mxCell id="KscysSoOjyOIIRiCbh5m-247" value="" style="fontSize=12;html=1;endArrow=ERoneToMany;startArrow=ERmandOne;entryX=0.002;entryY=0.733;entryDx=0;entryDy=0;rounded=0;exitX=1;exitY=0.5;exitDx=0;exitDy=0;entryPerimeter=0;edgeStyle=isometricEdgeStyle;" parent="1" source="KscysSoOjyOIIRiCbh5m-88" target="KscysSoOjyOIIRiCbh5m-233" edge="1">
                    <mxGeometry width="100" height="100" relative="1" as="geometry">
                        <mxPoint x="880" y="630" as="sourcePoint"/>
                        <mxPoint x="875" y="395" as="targetPoint"/>
                        <Array as="points">
                            <mxPoint x="680" y="160"/>
                        </Array>
                    </mxGeometry>
                </mxCell>
                <mxCell id="KscysSoOjyOIIRiCbh5m-248" value="" style="edgeStyle=orthogonalEdgeStyle;fontSize=12;html=1;endArrow=ERoneToMany;startArrow=ERmandOne;entryX=0;entryY=0.5;entryDx=0;entryDy=0;rounded=0;exitX=0;exitY=0.5;exitDx=0;exitDy=0;" parent="1" source="KscysSoOjyOIIRiCbh5m-78" target="KscysSoOjyOIIRiCbh5m-230" edge="1">
                    <mxGeometry width="100" height="100" relative="1" as="geometry">
                        <mxPoint x="611.44" y="-92.66000000000008" as="sourcePoint"/>
                        <mxPoint x="610" y="45" as="targetPoint"/>
                        <Array as="points">
                            <mxPoint x="640" y="-90"/>
                            <mxPoint x="640" y="45"/>
                            <mxPoint x="720" y="45"/>
                        </Array>
                    </mxGeometry>
                </mxCell>
                <mxCell id="KscysSoOjyOIIRiCbh5m-249" value="" style="edgeStyle=orthogonalEdgeStyle;fontSize=12;html=1;endArrow=ERoneToMany;startArrow=ERmandOne;entryX=1;entryY=0.25;entryDx=0;entryDy=0;rounded=0;exitX=1;exitY=0.5;exitDx=0;exitDy=0;" parent="1" source="KscysSoOjyOIIRiCbh5m-142" target="KscysSoOjyOIIRiCbh5m-42" edge="1">
                    <mxGeometry width="100" height="100" relative="1" as="geometry">
                        <mxPoint x="555" y="630" as="sourcePoint"/>
                        <mxPoint x="960" y="415" as="targetPoint"/>
                        <Array as="points">
                            <mxPoint x="790" y="630"/>
                            <mxPoint x="790" y="760"/>
                            <mxPoint x="700" y="760"/>
                        </Array>
                    </mxGeometry>
                </mxCell>
                <mxCell id="KscysSoOjyOIIRiCbh5m-250" value="" style="fontSize=12;html=1;endArrow=ERoneToMany;startArrow=ERmandOne;entryX=0;entryY=0.5;entryDx=0;entryDy=0;rounded=0;edgeStyle=orthogonalEdgeStyle;elbow=vertical;curved=1;exitX=0;exitY=0.5;exitDx=0;exitDy=0;" parent="1" source="KscysSoOjyOIIRiCbh5m-2" target="KscysSoOjyOIIRiCbh5m-173" edge="1">
                    <mxGeometry width="100" height="100" relative="1" as="geometry">
                        <mxPoint x="-230" y="570" as="sourcePoint"/>
                        <mxPoint x="-350.03" y="1070" as="targetPoint"/>
                        <Array as="points">
                            <mxPoint x="-420" y="410"/>
                            <mxPoint x="-420" y="1050"/>
                        </Array>
                    </mxGeometry>
                </mxCell>
                <mxCell id="KscysSoOjyOIIRiCbh5m-251" value="" style="edgeStyle=orthogonalEdgeStyle;fontSize=12;html=1;endArrow=ERoneToMany;startArrow=ERmandOne;exitX=1;exitY=0.5;exitDx=0;exitDy=0;entryX=0;entryY=0.5;entryDx=0;entryDy=0;rounded=0;elbow=vertical;curved=1;" parent="1" source="KscysSoOjyOIIRiCbh5m-2" target="KscysSoOjyOIIRiCbh5m-211" edge="1">
                    <mxGeometry width="100" height="100" relative="1" as="geometry">
                        <mxPoint x="200" y="500" as="sourcePoint"/>
                        <mxPoint x="620" y="920" as="targetPoint"/>
                    </mxGeometry>
                </mxCell>
                <mxCell id="KscysSoOjyOIIRiCbh5m-252" value="" style="fontSize=12;html=1;endArrow=ERoneToMany;startArrow=ERmandOne;exitX=1;exitY=0.5;exitDx=0;exitDy=0;entryX=0;entryY=0.5;entryDx=0;entryDy=0;rounded=0;elbow=vertical;" parent="1" source="KscysSoOjyOIIRiCbh5m-2" target="KscysSoOjyOIIRiCbh5m-186" edge="1">
                    <mxGeometry width="100" height="100" relative="1" as="geometry">
                        <mxPoint x="160" y="520" as="sourcePoint"/>
                        <mxPoint x="580" y="940" as="targetPoint"/>
                    </mxGeometry>
                </mxCell>
                <mxCell id="KscysSoOjyOIIRiCbh5m-253" value="" style="fontSize=12;html=1;endArrow=ERoneToMany;startArrow=ERmandOne;exitX=1;exitY=0.5;exitDx=0;exitDy=0;entryX=1;entryY=0.5;entryDx=0;entryDy=0;rounded=0;elbow=vertical;edgeStyle=orthogonalEdgeStyle;" parent="1" source="KscysSoOjyOIIRiCbh5m-152" target="KscysSoOjyOIIRiCbh5m-217" edge="1">
                    <mxGeometry width="100" height="100" relative="1" as="geometry">
                        <mxPoint x="620" y="925" as="sourcePoint"/>
                        <mxPoint x="1040" y="1345" as="targetPoint"/>
                        <Array as="points">
                            <mxPoint x="440" y="910"/>
                            <mxPoint x="440" y="610"/>
                        </Array>
                    </mxGeometry>
                </mxCell>
                <mxCell id="KscysSoOjyOIIRiCbh5m-254" value="" style="fontSize=12;html=1;endArrow=ERoneToMany;startArrow=ERmandOne;entryX=0;entryY=0.5;entryDx=0;entryDy=0;exitX=1;exitY=0.5;exitDx=0;exitDy=0;rounded=0;edgeStyle=orthogonalEdgeStyle;elbow=vertical;curved=1;" parent="1" source="KscysSoOjyOIIRiCbh5m-152" target="KscysSoOjyOIIRiCbh5m-192" edge="1">
                    <mxGeometry width="100" height="100" relative="1" as="geometry">
                        <mxPoint x="730" y="955" as="sourcePoint"/>
                        <mxPoint x="1055" y="1355" as="targetPoint"/>
                    </mxGeometry>
                </mxCell>
                <mxCell id="KscysSoOjyOIIRiCbh5m-255" value="" style="edgeStyle=orthogonalEdgeStyle;fontSize=12;html=1;endArrow=ERoneToMany;startArrow=ERmandOne;entryX=1;entryY=0.5;entryDx=0;entryDy=0;exitX=1;exitY=0.5;exitDx=0;exitDy=0;rounded=0;" parent="1" source="KscysSoOjyOIIRiCbh5m-88" target="KscysSoOjyOIIRiCbh5m-189" edge="1">
                    <mxGeometry width="100" height="100" relative="1" as="geometry">
                        <mxPoint x="890" y="755" as="sourcePoint"/>
                        <mxPoint x="570" y="1275" as="targetPoint"/>
                        <Array as="points">
                            <mxPoint x="820" y="270"/>
                            <mxPoint x="820" y="840"/>
                            <mxPoint x="480" y="840"/>
                            <mxPoint x="480" y="790"/>
                        </Array>
                    </mxGeometry>
                </mxCell>
                <mxCell id="KscysSoOjyOIIRiCbh5m-256" value="" style="fontSize=12;html=1;endArrow=ERoneToMany;startArrow=ERmandOne;entryX=1;entryY=0.5;entryDx=0;entryDy=0;exitX=0;exitY=0.5;exitDx=0;exitDy=0;rounded=0;edgeStyle=orthogonalEdgeStyle;curved=1;" parent="1" source="KscysSoOjyOIIRiCbh5m-88" target="KscysSoOjyOIIRiCbh5m-214" edge="1">
                    <mxGeometry width="100" height="100" relative="1" as="geometry">
                        <mxPoint x="845" y="275" as="sourcePoint"/>
                        <mxPoint x="525" y="1255" as="targetPoint"/>
                    </mxGeometry>
                </mxCell>
                <mxCell id="KscysSoOjyOIIRiCbh5m-257" value="awards" style="shape=table;startSize=20;container=1;collapsible=1;childLayout=tableLayout;fixedRows=1;rowLines=0;fontStyle=1;align=center;resizeLast=1;rounded=0;" parent="1" vertex="1">
                    <mxGeometry x="560" y="880" width="179" height="140" as="geometry"/>
                </mxCell>
                <mxCell id="KscysSoOjyOIIRiCbh5m-258" value="" style="shape=tableRow;horizontal=0;startSize=0;swimlaneHead=0;swimlaneBody=0;fillColor=none;collapsible=0;dropTarget=0;points=[[0,0.5],[1,0.5]];portConstraint=eastwest;top=0;left=0;right=0;bottom=1;rounded=0;" parent="KscysSoOjyOIIRiCbh5m-257" vertex="1">
                    <mxGeometry y="20" width="179" height="20" as="geometry"/>
                </mxCell>
                <mxCell id="KscysSoOjyOIIRiCbh5m-259" value="PK" style="shape=partialRectangle;connectable=0;fillColor=none;top=0;left=0;bottom=0;right=0;fontStyle=1;overflow=hidden;rounded=0;" parent="KscysSoOjyOIIRiCbh5m-258" vertex="1">
                    <mxGeometry width="30" height="20" as="geometry">
                        <mxRectangle width="30" height="20" as="alternateBounds"/>
                    </mxGeometry>
                </mxCell>
                <mxCell id="KscysSoOjyOIIRiCbh5m-260" value="ID" style="shape=partialRectangle;connectable=0;fillColor=none;top=0;left=0;bottom=0;right=0;align=left;spacingLeft=6;fontStyle=5;overflow=hidden;rounded=0;" parent="KscysSoOjyOIIRiCbh5m-258" vertex="1">
                    <mxGeometry x="30" width="149" height="20" as="geometry">
                        <mxRectangle width="149" height="20" as="alternateBounds"/>
                    </mxGeometry>
                </mxCell>
                <mxCell id="KscysSoOjyOIIRiCbh5m-261" value="" style="shape=tableRow;horizontal=0;startSize=0;swimlaneHead=0;swimlaneBody=0;fillColor=none;collapsible=0;dropTarget=0;points=[[0,0.5],[1,0.5]];portConstraint=eastwest;top=0;left=0;right=0;bottom=0;rounded=0;" parent="KscysSoOjyOIIRiCbh5m-257" vertex="1">
                    <mxGeometry y="40" width="179" height="20" as="geometry"/>
                </mxCell>
                <mxCell id="KscysSoOjyOIIRiCbh5m-262" value="" style="shape=partialRectangle;connectable=0;fillColor=none;top=0;left=0;bottom=0;right=0;editable=1;overflow=hidden;rounded=0;" parent="KscysSoOjyOIIRiCbh5m-261" vertex="1">
                    <mxGeometry width="30" height="20" as="geometry">
                        <mxRectangle width="30" height="20" as="alternateBounds"/>
                    </mxGeometry>
                </mxCell>
                <mxCell id="KscysSoOjyOIIRiCbh5m-263" value="name（string）" style="shape=partialRectangle;connectable=0;fillColor=none;top=0;left=0;bottom=0;right=0;align=left;spacingLeft=6;overflow=hidden;rounded=0;" parent="KscysSoOjyOIIRiCbh5m-261" vertex="1">
                    <mxGeometry x="30" width="149" height="20" as="geometry">
                        <mxRectangle width="149" height="20" as="alternateBounds"/>
                    </mxGeometry>
                </mxCell>
                <mxCell id="KscysSoOjyOIIRiCbh5m-264" value="" style="shape=tableRow;horizontal=0;startSize=0;swimlaneHead=0;swimlaneBody=0;fillColor=none;collapsible=0;dropTarget=0;points=[[0,0.5],[1,0.5]];portConstraint=eastwest;top=0;left=0;right=0;bottom=0;rounded=0;" parent="KscysSoOjyOIIRiCbh5m-257" vertex="1">
                    <mxGeometry y="60" width="179" height="20" as="geometry"/>
                </mxCell>
                <mxCell id="KscysSoOjyOIIRiCbh5m-265" value="" style="shape=partialRectangle;connectable=0;fillColor=none;top=0;left=0;bottom=0;right=0;editable=1;overflow=hidden;rounded=0;" parent="KscysSoOjyOIIRiCbh5m-264" vertex="1">
                    <mxGeometry width="30" height="20" as="geometry">
                        <mxRectangle width="30" height="20" as="alternateBounds"/>
                    </mxGeometry>
                </mxCell>
                <mxCell id="KscysSoOjyOIIRiCbh5m-266" value="description（text）" style="shape=partialRectangle;connectable=0;fillColor=none;top=0;left=0;bottom=0;right=0;align=left;spacingLeft=6;overflow=hidden;rounded=0;" parent="KscysSoOjyOIIRiCbh5m-264" vertex="1">
                    <mxGeometry x="30" width="149" height="20" as="geometry">
                        <mxRectangle width="149" height="20" as="alternateBounds"/>
                    </mxGeometry>
                </mxCell>
                <mxCell id="KscysSoOjyOIIRiCbh5m-267" value="" style="shape=tableRow;horizontal=0;startSize=0;swimlaneHead=0;swimlaneBody=0;fillColor=none;collapsible=0;dropTarget=0;points=[[0,0.5],[1,0.5]];portConstraint=eastwest;top=0;left=0;right=0;bottom=0;rounded=0;" parent="KscysSoOjyOIIRiCbh5m-257" vertex="1">
                    <mxGeometry y="80" width="179" height="20" as="geometry"/>
                </mxCell>
                <mxCell id="KscysSoOjyOIIRiCbh5m-268" value="" style="shape=partialRectangle;connectable=0;fillColor=none;top=0;left=0;bottom=0;right=0;editable=1;overflow=hidden;rounded=0;" parent="KscysSoOjyOIIRiCbh5m-267" vertex="1">
                    <mxGeometry width="30" height="20" as="geometry">
                        <mxRectangle width="30" height="20" as="alternateBounds"/>
                    </mxGeometry>
                </mxCell>
                <mxCell id="KscysSoOjyOIIRiCbh5m-269" value="criteria （integer）" style="shape=partialRectangle;connectable=0;fillColor=none;top=0;left=0;bottom=0;right=0;align=left;spacingLeft=6;overflow=hidden;rounded=0;" parent="KscysSoOjyOIIRiCbh5m-267" vertex="1">
                    <mxGeometry x="30" width="149" height="20" as="geometry">
                        <mxRectangle width="149" height="20" as="alternateBounds"/>
                    </mxGeometry>
                </mxCell>
                <mxCell id="KscysSoOjyOIIRiCbh5m-270" value="" style="shape=tableRow;horizontal=0;startSize=0;swimlaneHead=0;swimlaneBody=0;fillColor=none;collapsible=0;dropTarget=0;points=[[0,0.5],[1,0.5]];portConstraint=eastwest;top=0;left=0;right=0;bottom=0;rounded=0;" parent="KscysSoOjyOIIRiCbh5m-257" vertex="1">
                    <mxGeometry y="100" width="179" height="20" as="geometry"/>
                </mxCell>
                <mxCell id="KscysSoOjyOIIRiCbh5m-271" value="" style="shape=partialRectangle;connectable=0;fillColor=none;top=0;left=0;bottom=0;right=0;editable=1;overflow=hidden;rounded=0;" parent="KscysSoOjyOIIRiCbh5m-270" vertex="1">
                    <mxGeometry width="30" height="20" as="geometry">
                        <mxRectangle width="30" height="20" as="alternateBounds"/>
                    </mxGeometry>
                </mxCell>
                <mxCell id="KscysSoOjyOIIRiCbh5m-272" value="created_at（datetime）" style="shape=partialRectangle;connectable=0;fillColor=none;top=0;left=0;bottom=0;right=0;align=left;spacingLeft=6;overflow=hidden;rounded=0;" parent="KscysSoOjyOIIRiCbh5m-270" vertex="1">
                    <mxGeometry x="30" width="149" height="20" as="geometry">
                        <mxRectangle width="149" height="20" as="alternateBounds"/>
                    </mxGeometry>
                </mxCell>
                <mxCell id="KscysSoOjyOIIRiCbh5m-273" value="" style="shape=tableRow;horizontal=0;startSize=0;swimlaneHead=0;swimlaneBody=0;fillColor=none;collapsible=0;dropTarget=0;points=[[0,0.5],[1,0.5]];portConstraint=eastwest;top=0;left=0;right=0;bottom=0;rounded=0;" parent="KscysSoOjyOIIRiCbh5m-257" vertex="1">
                    <mxGeometry y="120" width="179" height="20" as="geometry"/>
                </mxCell>
                <mxCell id="KscysSoOjyOIIRiCbh5m-274" value="" style="shape=partialRectangle;connectable=0;fillColor=none;top=0;left=0;bottom=0;right=0;editable=1;overflow=hidden;rounded=0;" parent="KscysSoOjyOIIRiCbh5m-273" vertex="1">
                    <mxGeometry width="30" height="20" as="geometry">
                        <mxRectangle width="30" height="20" as="alternateBounds"/>
                    </mxGeometry>
                </mxCell>
                <mxCell id="KscysSoOjyOIIRiCbh5m-275" value="updated_at（datetime）" style="shape=partialRectangle;connectable=0;fillColor=none;top=0;left=0;bottom=0;right=0;align=left;spacingLeft=6;overflow=hidden;rounded=0;" parent="KscysSoOjyOIIRiCbh5m-273" vertex="1">
                    <mxGeometry x="30" width="149" height="20" as="geometry">
                        <mxRectangle width="149" height="20" as="alternateBounds"/>
                    </mxGeometry>
                </mxCell>
                <mxCell id="KscysSoOjyOIIRiCbh5m-276" value="contest_winners" style="shape=table;startSize=20;container=1;collapsible=1;childLayout=tableLayout;fixedRows=1;rowLines=0;fontStyle=1;align=center;resizeLast=1;rounded=0;" parent="1" vertex="1">
                    <mxGeometry x="560" y="1050" width="180" height="160" as="geometry"/>
                </mxCell>
                <mxCell id="KscysSoOjyOIIRiCbh5m-277" value="" style="shape=tableRow;horizontal=0;startSize=0;swimlaneHead=0;swimlaneBody=0;fillColor=none;collapsible=0;dropTarget=0;points=[[0,0.5],[1,0.5]];portConstraint=eastwest;top=0;left=0;right=0;bottom=1;rounded=0;" parent="KscysSoOjyOIIRiCbh5m-276" vertex="1">
                    <mxGeometry y="20" width="180" height="20" as="geometry"/>
                </mxCell>
                <mxCell id="KscysSoOjyOIIRiCbh5m-278" value="PK" style="shape=partialRectangle;connectable=0;fillColor=none;top=0;left=0;bottom=0;right=0;fontStyle=1;overflow=hidden;rounded=0;" parent="KscysSoOjyOIIRiCbh5m-277" vertex="1">
                    <mxGeometry width="30" height="20" as="geometry">
                        <mxRectangle width="30" height="20" as="alternateBounds"/>
                    </mxGeometry>
                </mxCell>
                <mxCell id="KscysSoOjyOIIRiCbh5m-279" value="ID" style="shape=partialRectangle;connectable=0;fillColor=none;top=0;left=0;bottom=0;right=0;align=left;spacingLeft=6;fontStyle=5;overflow=hidden;rounded=0;" parent="KscysSoOjyOIIRiCbh5m-277" vertex="1">
                    <mxGeometry x="30" width="150" height="20" as="geometry">
                        <mxRectangle width="150" height="20" as="alternateBounds"/>
                    </mxGeometry>
                </mxCell>
                <mxCell id="KscysSoOjyOIIRiCbh5m-286" value="" style="shape=tableRow;horizontal=0;startSize=0;swimlaneHead=0;swimlaneBody=0;fillColor=none;collapsible=0;dropTarget=0;points=[[0,0.5],[1,0.5]];portConstraint=eastwest;top=0;left=0;right=0;bottom=0;rounded=0;" parent="KscysSoOjyOIIRiCbh5m-276" vertex="1">
                    <mxGeometry y="40" width="180" height="20" as="geometry"/>
                </mxCell>
                <mxCell id="KscysSoOjyOIIRiCbh5m-287" value="FK" style="shape=partialRectangle;connectable=0;fillColor=none;top=0;left=0;bottom=0;right=0;editable=1;overflow=hidden;rounded=0;" parent="KscysSoOjyOIIRiCbh5m-286" vertex="1">
                    <mxGeometry width="30" height="20" as="geometry">
                        <mxRectangle width="30" height="20" as="alternateBounds"/>
                    </mxGeometry>
                </mxCell>
                <mxCell id="KscysSoOjyOIIRiCbh5m-288" value="photo_id（integer）" style="shape=partialRectangle;connectable=0;fillColor=none;top=0;left=0;bottom=0;right=0;align=left;spacingLeft=6;overflow=hidden;rounded=0;" parent="KscysSoOjyOIIRiCbh5m-286" vertex="1">
                    <mxGeometry x="30" width="150" height="20" as="geometry">
                        <mxRectangle width="150" height="20" as="alternateBounds"/>
                    </mxGeometry>
                </mxCell>
                <mxCell id="KscysSoOjyOIIRiCbh5m-283" value="" style="shape=tableRow;horizontal=0;startSize=0;swimlaneHead=0;swimlaneBody=0;fillColor=none;collapsible=0;dropTarget=0;points=[[0,0.5],[1,0.5]];portConstraint=eastwest;top=0;left=0;right=0;bottom=0;rounded=0;" parent="KscysSoOjyOIIRiCbh5m-276" vertex="1">
                    <mxGeometry y="60" width="180" height="20" as="geometry"/>
                </mxCell>
                <mxCell id="KscysSoOjyOIIRiCbh5m-284" value="FK" style="shape=partialRectangle;connectable=0;fillColor=none;top=0;left=0;bottom=0;right=0;editable=1;overflow=hidden;rounded=0;" parent="KscysSoOjyOIIRiCbh5m-283" vertex="1">
                    <mxGeometry width="30" height="20" as="geometry">
                        <mxRectangle width="30" height="20" as="alternateBounds"/>
                    </mxGeometry>
                </mxCell>
                <mxCell id="KscysSoOjyOIIRiCbh5m-285" value="award_id（integer）" style="shape=partialRectangle;connectable=0;fillColor=none;top=0;left=0;bottom=0;right=0;align=left;spacingLeft=6;overflow=hidden;rounded=0;" parent="KscysSoOjyOIIRiCbh5m-283" vertex="1">
                    <mxGeometry x="30" width="150" height="20" as="geometry">
                        <mxRectangle width="150" height="20" as="alternateBounds"/>
                    </mxGeometry>
                </mxCell>
                <mxCell id="KscysSoOjyOIIRiCbh5m-280" value="" style="shape=tableRow;horizontal=0;startSize=0;swimlaneHead=0;swimlaneBody=0;fillColor=none;collapsible=0;dropTarget=0;points=[[0,0.5],[1,0.5]];portConstraint=eastwest;top=0;left=0;right=0;bottom=0;rounded=0;" parent="KscysSoOjyOIIRiCbh5m-276" vertex="1">
                    <mxGeometry y="80" width="180" height="20" as="geometry"/>
                </mxCell>
                <mxCell id="KscysSoOjyOIIRiCbh5m-281" value="FK" style="shape=partialRectangle;connectable=0;fillColor=none;top=0;left=0;bottom=0;right=0;editable=1;overflow=hidden;rounded=0;" parent="KscysSoOjyOIIRiCbh5m-280" vertex="1">
                    <mxGeometry width="30" height="20" as="geometry">
                        <mxRectangle width="30" height="20" as="alternateBounds"/>
                    </mxGeometry>
                </mxCell>
                <mxCell id="KscysSoOjyOIIRiCbh5m-282" value="contest_id（integer）" style="shape=partialRectangle;connectable=0;fillColor=none;top=0;left=0;bottom=0;right=0;align=left;spacingLeft=6;overflow=hidden;rounded=0;" parent="KscysSoOjyOIIRiCbh5m-280" vertex="1">
                    <mxGeometry x="30" width="150" height="20" as="geometry">
                        <mxRectangle width="150" height="20" as="alternateBounds"/>
                    </mxGeometry>
                </mxCell>
                <mxCell id="KscysSoOjyOIIRiCbh5m-289" value="" style="shape=tableRow;horizontal=0;startSize=0;swimlaneHead=0;swimlaneBody=0;fillColor=none;collapsible=0;dropTarget=0;points=[[0,0.5],[1,0.5]];portConstraint=eastwest;top=0;left=0;right=0;bottom=0;rounded=0;" parent="KscysSoOjyOIIRiCbh5m-276" vertex="1">
                    <mxGeometry y="100" width="180" height="20" as="geometry"/>
                </mxCell>
                <mxCell id="KscysSoOjyOIIRiCbh5m-290" value="FK" style="shape=partialRectangle;connectable=0;fillColor=none;top=0;left=0;bottom=0;right=0;editable=1;overflow=hidden;rounded=0;" parent="KscysSoOjyOIIRiCbh5m-289" vertex="1">
                    <mxGeometry width="30" height="20" as="geometry">
                        <mxRectangle width="30" height="20" as="alternateBounds"/>
                    </mxGeometry>
                </mxCell>
                <mxCell id="KscysSoOjyOIIRiCbh5m-291" value="user_id（integer）" style="shape=partialRectangle;connectable=0;fillColor=none;top=0;left=0;bottom=0;right=0;align=left;spacingLeft=6;overflow=hidden;rounded=0;" parent="KscysSoOjyOIIRiCbh5m-289" vertex="1">
                    <mxGeometry x="30" width="150" height="20" as="geometry">
                        <mxRectangle width="150" height="20" as="alternateBounds"/>
                    </mxGeometry>
                </mxCell>
                <mxCell id="KscysSoOjyOIIRiCbh5m-292" value="" style="shape=tableRow;horizontal=0;startSize=0;swimlaneHead=0;swimlaneBody=0;fillColor=none;collapsible=0;dropTarget=0;points=[[0,0.5],[1,0.5]];portConstraint=eastwest;top=0;left=0;right=0;bottom=0;rounded=0;" parent="KscysSoOjyOIIRiCbh5m-276" vertex="1">
                    <mxGeometry y="120" width="180" height="20" as="geometry"/>
                </mxCell>
                <mxCell id="KscysSoOjyOIIRiCbh5m-293" value="" style="shape=partialRectangle;connectable=0;fillColor=none;top=0;left=0;bottom=0;right=0;editable=1;overflow=hidden;rounded=0;" parent="KscysSoOjyOIIRiCbh5m-292" vertex="1">
                    <mxGeometry width="30" height="20" as="geometry">
                        <mxRectangle width="30" height="20" as="alternateBounds"/>
                    </mxGeometry>
                </mxCell>
                <mxCell id="KscysSoOjyOIIRiCbh5m-294" value="created_at（datetime）" style="shape=partialRectangle;connectable=0;fillColor=none;top=0;left=0;bottom=0;right=0;align=left;spacingLeft=6;overflow=hidden;rounded=0;" parent="KscysSoOjyOIIRiCbh5m-292" vertex="1">
                    <mxGeometry x="30" width="150" height="20" as="geometry">
                        <mxRectangle width="150" height="20" as="alternateBounds"/>
                    </mxGeometry>
                </mxCell>
                <mxCell id="KscysSoOjyOIIRiCbh5m-295" value="" style="shape=tableRow;horizontal=0;startSize=0;swimlaneHead=0;swimlaneBody=0;fillColor=none;collapsible=0;dropTarget=0;points=[[0,0.5],[1,0.5]];portConstraint=eastwest;top=0;left=0;right=0;bottom=0;rounded=0;" parent="KscysSoOjyOIIRiCbh5m-276" vertex="1">
                    <mxGeometry y="140" width="180" height="20" as="geometry"/>
                </mxCell>
                <mxCell id="KscysSoOjyOIIRiCbh5m-296" value="" style="shape=partialRectangle;connectable=0;fillColor=none;top=0;left=0;bottom=0;right=0;editable=1;overflow=hidden;rounded=0;" parent="KscysSoOjyOIIRiCbh5m-295" vertex="1">
                    <mxGeometry width="30" height="20" as="geometry">
                        <mxRectangle width="30" height="20" as="alternateBounds"/>
                    </mxGeometry>
                </mxCell>
                <mxCell id="KscysSoOjyOIIRiCbh5m-297" value="updated_at（datetime）" style="shape=partialRectangle;connectable=0;fillColor=none;top=0;left=0;bottom=0;right=0;align=left;spacingLeft=6;overflow=hidden;rounded=0;" parent="KscysSoOjyOIIRiCbh5m-295" vertex="1">
                    <mxGeometry x="30" width="150" height="20" as="geometry">
                        <mxRectangle width="150" height="20" as="alternateBounds"/>
                    </mxGeometry>
                </mxCell>
                <mxCell id="KscysSoOjyOIIRiCbh5m-298" value="" style="edgeStyle=orthogonalEdgeStyle;fontSize=12;html=1;endArrow=ERoneToMany;startArrow=ERmandOne;entryX=0;entryY=0.5;entryDx=0;entryDy=0;exitX=0;exitY=0.5;exitDx=0;exitDy=0;rounded=0;" parent="1" source="KscysSoOjyOIIRiCbh5m-258" target="KscysSoOjyOIIRiCbh5m-283" edge="1">
                    <mxGeometry width="100" height="100" relative="1" as="geometry">
                        <mxPoint x="1225" y="825" as="sourcePoint"/>
                        <mxPoint x="1325" y="725" as="targetPoint"/>
                        <Array as="points">
                            <mxPoint x="520" y="910"/>
                            <mxPoint x="520" y="1120"/>
                        </Array>
                    </mxGeometry>
                </mxCell>
                <mxCell id="KscysSoOjyOIIRiCbh5m-299" value="" style="fontSize=12;html=1;endArrow=ERoneToMany;startArrow=ERmandOne;entryX=0;entryY=0.5;entryDx=0;entryDy=0;exitX=1;exitY=0.5;exitDx=0;exitDy=0;rounded=0;elbow=vertical;" parent="1" source="KscysSoOjyOIIRiCbh5m-152" target="KscysSoOjyOIIRiCbh5m-280" edge="1">
                    <mxGeometry width="100" height="100" relative="1" as="geometry">
                        <mxPoint x="1806" y="565" as="sourcePoint"/>
                        <mxPoint x="1725" y="605" as="targetPoint"/>
                    </mxGeometry>
                </mxCell>
                <mxCell id="KscysSoOjyOIIRiCbh5m-300" value="" style="fontSize=12;html=1;endArrow=ERoneToMany;startArrow=ERmandOne;exitX=1;exitY=0.5;exitDx=0;exitDy=0;rounded=0;entryX=1;entryY=0.5;entryDx=0;entryDy=0;elbow=vertical;edgeStyle=orthogonalEdgeStyle;curved=1;" parent="1" source="KscysSoOjyOIIRiCbh5m-88" target="KscysSoOjyOIIRiCbh5m-286" edge="1">
                    <mxGeometry width="100" height="100" relative="1" as="geometry">
                        <mxPoint x="860" y="560" as="sourcePoint"/>
                        <mxPoint x="901" y="905" as="targetPoint"/>
                        <Array as="points">
                            <mxPoint x="920" y="270"/>
                            <mxPoint x="920" y="1100"/>
                        </Array>
                    </mxGeometry>
                </mxCell>
                <mxCell id="KscysSoOjyOIIRiCbh5m-301" value="" style="edgeStyle=orthogonalEdgeStyle;fontSize=12;html=1;endArrow=ERoneToMany;startArrow=ERmandOne;entryX=0;entryY=0.5;entryDx=0;entryDy=0;rounded=0;" parent="1" target="KscysSoOjyOIIRiCbh5m-289" edge="1">
                    <mxGeometry width="100" height="100" relative="1" as="geometry">
                        <mxPoint x="-180" y="410" as="sourcePoint"/>
                        <mxPoint x="1130" y="1075" as="targetPoint"/>
                        <Array as="points">
                            <mxPoint x="-320" y="410"/>
                            <mxPoint x="-320" y="1160"/>
                        </Array>
                    </mxGeometry>
                </mxCell>
                <mxCell id="KscysSoOjyOIIRiCbh5m-302" value="chat_messages" style="shape=table;startSize=20;container=1;collapsible=1;childLayout=tableLayout;fixedRows=1;rowLines=0;fontStyle=1;align=center;resizeLast=1;rounded=0;" parent="1" vertex="1">
                    <mxGeometry x="-540" y="160" width="180" height="140" as="geometry"/>
                </mxCell>
                <mxCell id="KscysSoOjyOIIRiCbh5m-303" value="" style="shape=tableRow;horizontal=0;startSize=0;swimlaneHead=0;swimlaneBody=0;fillColor=none;collapsible=0;dropTarget=0;points=[[0,0.5],[1,0.5]];portConstraint=eastwest;top=0;left=0;right=0;bottom=1;rounded=0;" parent="KscysSoOjyOIIRiCbh5m-302" vertex="1">
                    <mxGeometry y="20" width="180" height="20" as="geometry"/>
                </mxCell>
                <mxCell id="KscysSoOjyOIIRiCbh5m-304" value="PK" style="shape=partialRectangle;connectable=0;fillColor=none;top=0;left=0;bottom=0;right=0;fontStyle=1;overflow=hidden;rounded=0;" parent="KscysSoOjyOIIRiCbh5m-303" vertex="1">
                    <mxGeometry width="30" height="20" as="geometry">
                        <mxRectangle width="30" height="20" as="alternateBounds"/>
                    </mxGeometry>
                </mxCell>
                <mxCell id="KscysSoOjyOIIRiCbh5m-305" value="ID" style="shape=partialRectangle;connectable=0;fillColor=none;top=0;left=0;bottom=0;right=0;align=left;spacingLeft=6;fontStyle=5;overflow=hidden;rounded=0;" parent="KscysSoOjyOIIRiCbh5m-303" vertex="1">
                    <mxGeometry x="30" width="150" height="20" as="geometry">
                        <mxRectangle width="150" height="20" as="alternateBounds"/>
                    </mxGeometry>
                </mxCell>
                <mxCell id="KscysSoOjyOIIRiCbh5m-306" value="" style="shape=tableRow;horizontal=0;startSize=0;swimlaneHead=0;swimlaneBody=0;fillColor=none;collapsible=0;dropTarget=0;points=[[0,0.5],[1,0.5]];portConstraint=eastwest;top=0;left=0;right=0;bottom=0;rounded=0;" parent="KscysSoOjyOIIRiCbh5m-302" vertex="1">
                    <mxGeometry y="40" width="180" height="20" as="geometry"/>
                </mxCell>
                <mxCell id="KscysSoOjyOIIRiCbh5m-307" value="" style="shape=partialRectangle;connectable=0;fillColor=none;top=0;left=0;bottom=0;right=0;editable=1;overflow=hidden;rounded=0;" parent="KscysSoOjyOIIRiCbh5m-306" vertex="1">
                    <mxGeometry width="30" height="20" as="geometry">
                        <mxRectangle width="30" height="20" as="alternateBounds"/>
                    </mxGeometry>
                </mxCell>
                <mxCell id="KscysSoOjyOIIRiCbh5m-308" value="content（text）" style="shape=partialRectangle;connectable=0;fillColor=none;top=0;left=0;bottom=0;right=0;align=left;spacingLeft=6;overflow=hidden;rounded=0;" parent="KscysSoOjyOIIRiCbh5m-306" vertex="1">
                    <mxGeometry x="30" width="150" height="20" as="geometry">
                        <mxRectangle width="150" height="20" as="alternateBounds"/>
                    </mxGeometry>
                </mxCell>
                <mxCell id="KscysSoOjyOIIRiCbh5m-309" value="" style="shape=tableRow;horizontal=0;startSize=0;swimlaneHead=0;swimlaneBody=0;fillColor=none;collapsible=0;dropTarget=0;points=[[0,0.5],[1,0.5]];portConstraint=eastwest;top=0;left=0;right=0;bottom=0;rounded=0;" parent="KscysSoOjyOIIRiCbh5m-302" vertex="1">
                    <mxGeometry y="60" width="180" height="20" as="geometry"/>
                </mxCell>
                <mxCell id="KscysSoOjyOIIRiCbh5m-310" value="FK" style="shape=partialRectangle;connectable=0;fillColor=none;top=0;left=0;bottom=0;right=0;editable=1;overflow=hidden;rounded=0;" parent="KscysSoOjyOIIRiCbh5m-309" vertex="1">
                    <mxGeometry width="30" height="20" as="geometry">
                        <mxRectangle width="30" height="20" as="alternateBounds"/>
                    </mxGeometry>
                </mxCell>
                <mxCell id="KscysSoOjyOIIRiCbh5m-311" value="user_id（integer）" style="shape=partialRectangle;connectable=0;fillColor=none;top=0;left=0;bottom=0;right=0;align=left;spacingLeft=6;overflow=hidden;rounded=0;" parent="KscysSoOjyOIIRiCbh5m-309" vertex="1">
                    <mxGeometry x="30" width="150" height="20" as="geometry">
                        <mxRectangle width="150" height="20" as="alternateBounds"/>
                    </mxGeometry>
                </mxCell>
                <mxCell id="KscysSoOjyOIIRiCbh5m-312" value="" style="shape=tableRow;horizontal=0;startSize=0;swimlaneHead=0;swimlaneBody=0;fillColor=none;collapsible=0;dropTarget=0;points=[[0,0.5],[1,0.5]];portConstraint=eastwest;top=0;left=0;right=0;bottom=0;rounded=0;" parent="KscysSoOjyOIIRiCbh5m-302" vertex="1">
                    <mxGeometry y="80" width="180" height="20" as="geometry"/>
                </mxCell>
                <mxCell id="KscysSoOjyOIIRiCbh5m-313" value="FK" style="shape=partialRectangle;connectable=0;fillColor=none;top=0;left=0;bottom=0;right=0;editable=1;overflow=hidden;rounded=0;" parent="KscysSoOjyOIIRiCbh5m-312" vertex="1">
                    <mxGeometry width="30" height="20" as="geometry">
                        <mxRectangle width="30" height="20" as="alternateBounds"/>
                    </mxGeometry>
                </mxCell>
                <mxCell id="KscysSoOjyOIIRiCbh5m-314" value="room_id（integer）" style="shape=partialRectangle;connectable=0;fillColor=none;top=0;left=0;bottom=0;right=0;align=left;spacingLeft=6;overflow=hidden;rounded=0;" parent="KscysSoOjyOIIRiCbh5m-312" vertex="1">
                    <mxGeometry x="30" width="150" height="20" as="geometry">
                        <mxRectangle width="150" height="20" as="alternateBounds"/>
                    </mxGeometry>
                </mxCell>
                <mxCell id="KscysSoOjyOIIRiCbh5m-315" value="" style="shape=tableRow;horizontal=0;startSize=0;swimlaneHead=0;swimlaneBody=0;fillColor=none;collapsible=0;dropTarget=0;points=[[0,0.5],[1,0.5]];portConstraint=eastwest;top=0;left=0;right=0;bottom=0;rounded=0;" parent="KscysSoOjyOIIRiCbh5m-302" vertex="1">
                    <mxGeometry y="100" width="180" height="20" as="geometry"/>
                </mxCell>
                <mxCell id="KscysSoOjyOIIRiCbh5m-316" value="" style="shape=partialRectangle;connectable=0;fillColor=none;top=0;left=0;bottom=0;right=0;editable=1;overflow=hidden;rounded=0;" parent="KscysSoOjyOIIRiCbh5m-315" vertex="1">
                    <mxGeometry width="30" height="20" as="geometry">
                        <mxRectangle width="30" height="20" as="alternateBounds"/>
                    </mxGeometry>
                </mxCell>
                <mxCell id="KscysSoOjyOIIRiCbh5m-317" value="created_at（datetime）" style="shape=partialRectangle;connectable=0;fillColor=none;top=0;left=0;bottom=0;right=0;align=left;spacingLeft=6;overflow=hidden;rounded=0;" parent="KscysSoOjyOIIRiCbh5m-315" vertex="1">
                    <mxGeometry x="30" width="150" height="20" as="geometry">
                        <mxRectangle width="150" height="20" as="alternateBounds"/>
                    </mxGeometry>
                </mxCell>
                <mxCell id="KscysSoOjyOIIRiCbh5m-318" value="" style="shape=tableRow;horizontal=0;startSize=0;swimlaneHead=0;swimlaneBody=0;fillColor=none;collapsible=0;dropTarget=0;points=[[0,0.5],[1,0.5]];portConstraint=eastwest;top=0;left=0;right=0;bottom=0;rounded=0;" parent="KscysSoOjyOIIRiCbh5m-302" vertex="1">
                    <mxGeometry y="120" width="180" height="20" as="geometry"/>
                </mxCell>
                <mxCell id="KscysSoOjyOIIRiCbh5m-319" value="" style="shape=partialRectangle;connectable=0;fillColor=none;top=0;left=0;bottom=0;right=0;editable=1;overflow=hidden;rounded=0;" parent="KscysSoOjyOIIRiCbh5m-318" vertex="1">
                    <mxGeometry width="30" height="20" as="geometry">
                        <mxRectangle width="30" height="20" as="alternateBounds"/>
                    </mxGeometry>
                </mxCell>
                <mxCell id="KscysSoOjyOIIRiCbh5m-320" value="updated_at（datetime）" style="shape=partialRectangle;connectable=0;fillColor=none;top=0;left=0;bottom=0;right=0;align=left;spacingLeft=6;overflow=hidden;rounded=0;" parent="KscysSoOjyOIIRiCbh5m-318" vertex="1">
                    <mxGeometry x="30" width="150" height="20" as="geometry">
                        <mxRectangle width="150" height="20" as="alternateBounds"/>
                    </mxGeometry>
                </mxCell>
                <mxCell id="KscysSoOjyOIIRiCbh5m-321" value="rooms" style="shape=table;startSize=20;container=1;collapsible=1;childLayout=tableLayout;fixedRows=1;rowLines=0;fontStyle=1;align=center;resizeLast=1;rounded=0;" parent="1" vertex="1">
                    <mxGeometry x="-540" width="180" height="120" as="geometry"/>
                </mxCell>
                <mxCell id="KscysSoOjyOIIRiCbh5m-322" value="" style="shape=tableRow;horizontal=0;startSize=0;swimlaneHead=0;swimlaneBody=0;fillColor=none;collapsible=0;dropTarget=0;points=[[0,0.5],[1,0.5]];portConstraint=eastwest;top=0;left=0;right=0;bottom=1;rounded=0;" parent="KscysSoOjyOIIRiCbh5m-321" vertex="1">
                    <mxGeometry y="20" width="180" height="20" as="geometry"/>
                </mxCell>
                <mxCell id="KscysSoOjyOIIRiCbh5m-323" value="PK" style="shape=partialRectangle;connectable=0;fillColor=none;top=0;left=0;bottom=0;right=0;fontStyle=1;overflow=hidden;rounded=0;" parent="KscysSoOjyOIIRiCbh5m-322" vertex="1">
                    <mxGeometry width="30" height="20" as="geometry">
                        <mxRectangle width="30" height="20" as="alternateBounds"/>
                    </mxGeometry>
                </mxCell>
                <mxCell id="KscysSoOjyOIIRiCbh5m-324" value="ID" style="shape=partialRectangle;connectable=0;fillColor=none;top=0;left=0;bottom=0;right=0;align=left;spacingLeft=6;fontStyle=5;overflow=hidden;rounded=0;" parent="KscysSoOjyOIIRiCbh5m-322" vertex="1">
                    <mxGeometry x="30" width="150" height="20" as="geometry">
                        <mxRectangle width="150" height="20" as="alternateBounds"/>
                    </mxGeometry>
                </mxCell>
                <mxCell id="KscysSoOjyOIIRiCbh5m-325" value="" style="shape=tableRow;horizontal=0;startSize=0;swimlaneHead=0;swimlaneBody=0;fillColor=none;collapsible=0;dropTarget=0;points=[[0,0.5],[1,0.5]];portConstraint=eastwest;top=0;left=0;right=0;bottom=0;rounded=0;" parent="KscysSoOjyOIIRiCbh5m-321" vertex="1">
                    <mxGeometry y="40" width="180" height="20" as="geometry"/>
                </mxCell>
                <mxCell id="KscysSoOjyOIIRiCbh5m-326" value="" style="shape=partialRectangle;connectable=0;fillColor=none;top=0;left=0;bottom=0;right=0;editable=1;overflow=hidden;rounded=0;" parent="KscysSoOjyOIIRiCbh5m-325" vertex="1">
                    <mxGeometry width="30" height="20" as="geometry">
                        <mxRectangle width="30" height="20" as="alternateBounds"/>
                    </mxGeometry>
                </mxCell>
                <mxCell id="KscysSoOjyOIIRiCbh5m-327" value="title（string）" style="shape=partialRectangle;connectable=0;fillColor=none;top=0;left=0;bottom=0;right=0;align=left;spacingLeft=6;overflow=hidden;rounded=0;" parent="KscysSoOjyOIIRiCbh5m-325" vertex="1">
                    <mxGeometry x="30" width="150" height="20" as="geometry">
                        <mxRectangle width="150" height="20" as="alternateBounds"/>
                    </mxGeometry>
                </mxCell>
                <mxCell id="KscysSoOjyOIIRiCbh5m-328" value="" style="shape=tableRow;horizontal=0;startSize=0;swimlaneHead=0;swimlaneBody=0;fillColor=none;collapsible=0;dropTarget=0;points=[[0,0.5],[1,0.5]];portConstraint=eastwest;top=0;left=0;right=0;bottom=0;rounded=0;" parent="KscysSoOjyOIIRiCbh5m-321" vertex="1">
                    <mxGeometry y="60" width="180" height="20" as="geometry"/>
                </mxCell>
                <mxCell id="KscysSoOjyOIIRiCbh5m-329" value="" style="shape=partialRectangle;connectable=0;fillColor=none;top=0;left=0;bottom=0;right=0;editable=1;overflow=hidden;rounded=0;" parent="KscysSoOjyOIIRiCbh5m-328" vertex="1">
                    <mxGeometry width="30" height="20" as="geometry">
                        <mxRectangle width="30" height="20" as="alternateBounds"/>
                    </mxGeometry>
                </mxCell>
                <mxCell id="KscysSoOjyOIIRiCbh5m-330" value="status（integer）" style="shape=partialRectangle;connectable=0;fillColor=none;top=0;left=0;bottom=0;right=0;align=left;spacingLeft=6;overflow=hidden;rounded=0;" parent="KscysSoOjyOIIRiCbh5m-328" vertex="1">
                    <mxGeometry x="30" width="150" height="20" as="geometry">
                        <mxRectangle width="150" height="20" as="alternateBounds"/>
                    </mxGeometry>
                </mxCell>
                <mxCell id="KscysSoOjyOIIRiCbh5m-331" value="" style="shape=tableRow;horizontal=0;startSize=0;swimlaneHead=0;swimlaneBody=0;fillColor=none;collapsible=0;dropTarget=0;points=[[0,0.5],[1,0.5]];portConstraint=eastwest;top=0;left=0;right=0;bottom=0;rounded=0;" parent="KscysSoOjyOIIRiCbh5m-321" vertex="1">
                    <mxGeometry y="80" width="180" height="20" as="geometry"/>
                </mxCell>
                <mxCell id="KscysSoOjyOIIRiCbh5m-332" value="" style="shape=partialRectangle;connectable=0;fillColor=none;top=0;left=0;bottom=0;right=0;editable=1;overflow=hidden;rounded=0;" parent="KscysSoOjyOIIRiCbh5m-331" vertex="1">
                    <mxGeometry width="30" height="20" as="geometry">
                        <mxRectangle width="30" height="20" as="alternateBounds"/>
                    </mxGeometry>
                </mxCell>
                <mxCell id="KscysSoOjyOIIRiCbh5m-333" value="created_at（datetime）" style="shape=partialRectangle;connectable=0;fillColor=none;top=0;left=0;bottom=0;right=0;align=left;spacingLeft=6;overflow=hidden;rounded=0;" parent="KscysSoOjyOIIRiCbh5m-331" vertex="1">
                    <mxGeometry x="30" width="150" height="20" as="geometry">
                        <mxRectangle width="150" height="20" as="alternateBounds"/>
                    </mxGeometry>
                </mxCell>
                <mxCell id="KscysSoOjyOIIRiCbh5m-334" value="" style="shape=tableRow;horizontal=0;startSize=0;swimlaneHead=0;swimlaneBody=0;fillColor=none;collapsible=0;dropTarget=0;points=[[0,0.5],[1,0.5]];portConstraint=eastwest;top=0;left=0;right=0;bottom=0;rounded=0;" parent="KscysSoOjyOIIRiCbh5m-321" vertex="1">
                    <mxGeometry y="100" width="180" height="20" as="geometry"/>
                </mxCell>
                <mxCell id="KscysSoOjyOIIRiCbh5m-335" value="" style="shape=partialRectangle;connectable=0;fillColor=none;top=0;left=0;bottom=0;right=0;editable=1;overflow=hidden;rounded=0;" parent="KscysSoOjyOIIRiCbh5m-334" vertex="1">
                    <mxGeometry width="30" height="20" as="geometry">
                        <mxRectangle width="30" height="20" as="alternateBounds"/>
                    </mxGeometry>
                </mxCell>
                <mxCell id="KscysSoOjyOIIRiCbh5m-336" value="updated_at（datetime）" style="shape=partialRectangle;connectable=0;fillColor=none;top=0;left=0;bottom=0;right=0;align=left;spacingLeft=6;overflow=hidden;rounded=0;" parent="KscysSoOjyOIIRiCbh5m-334" vertex="1">
                    <mxGeometry x="30" width="150" height="20" as="geometry">
                        <mxRectangle width="150" height="20" as="alternateBounds"/>
                    </mxGeometry>
                </mxCell>
                <mxCell id="KscysSoOjyOIIRiCbh5m-337" value="" style="edgeStyle=isometricEdgeStyle;fontSize=12;html=1;endArrow=ERoneToMany;startArrow=ERmandOne;exitX=0;exitY=0.5;exitDx=0;exitDy=0;rounded=0;elbow=vertical;entryX=1;entryY=0.5;entryDx=0;entryDy=0;" parent="1" source="KscysSoOjyOIIRiCbh5m-2" target="KscysSoOjyOIIRiCbh5m-309" edge="1">
                    <mxGeometry width="100" height="100" relative="1" as="geometry">
                        <mxPoint x="-97.06" y="400" as="sourcePoint"/>
                        <mxPoint x="-330" y="230" as="targetPoint"/>
                    </mxGeometry>
                </mxCell>
                <mxCell id="KscysSoOjyOIIRiCbh5m-338" value="" style="edgeStyle=orthogonalEdgeStyle;fontSize=12;html=1;endArrow=ERoneToMany;startArrow=ERmandOne;exitX=0;exitY=0.5;exitDx=0;exitDy=0;entryX=0;entryY=0.5;entryDx=0;entryDy=0;rounded=0;" parent="1" source="KscysSoOjyOIIRiCbh5m-322" target="KscysSoOjyOIIRiCbh5m-312" edge="1">
                    <mxGeometry width="100" height="100" relative="1" as="geometry">
                        <mxPoint x="-560" y="20" as="sourcePoint"/>
                        <mxPoint x="-560" y="240" as="targetPoint"/>
                        <Array as="points">
                            <mxPoint x="-600" y="30"/>
                            <mxPoint x="-600" y="250"/>
                        </Array>
                    </mxGeometry>
                </mxCell>
            </root>
        </mxGraphModel>
    </diagram>
</mxfile>